<svg width="48" height="48" viewBox="0 0 48 48" fill="none" xmlns="http://www.w3.org/2000/svg">
<path fill-rule="evenodd" clip-rule="evenodd" d="M31.998 2.00003C33.1026 2.00003 33.998 2.89547 33.998 4.00003V6.00329C34.949 6.00981 35.78 6.02947 36.5016 6.08841C37.6258 6.18027 38.6592 6.37739 39.63 6.87197C41.1352 7.63897 42.359 8.86281 43.126 10.3681C43.6206 11.3388 43.8178 12.3722 43.9096 13.4964C43.998 14.5788 43.998 15.9075 43.998 17.5174V34.4826C43.998 36.0926 43.998 37.4212 43.9096 38.5036C43.8178 39.6278 43.6206 40.6612 43.126 41.632C42.359 43.1372 41.1352 44.361 39.63 45.128C38.6592 45.6226 37.6258 45.8198 36.5016 45.9116C35.4192 46 34.0906 46 32.4806 46H15.5154C13.9055 46 12.5768 46 11.4944 45.9116C10.3702 45.8198 9.33679 45.6226 8.36613 45.128C6.86083 44.361 5.63699 43.1372 4.87001 41.632C4.37541 40.6612 4.17829 39.6278 4.08643 38.5036C3.99801 37.4212 3.99803 36.0926 3.99805 34.4826V17.5174C3.99803 15.9075 3.99801 14.5788 4.08643 13.4964C4.17829 12.3722 4.37541 11.3388 4.87001 10.3681C5.63699 8.86281 6.86083 7.63897 8.36613 6.87197C9.33679 6.37739 10.3702 6.18027 11.4944 6.08841C12.216 6.02947 13.0471 6.00981 13.998 6.00329V4.00003C13.998 2.89547 14.8935 2.00003 15.998 2.00003C17.1026 2.00003 17.998 2.89547 17.998 4.00003V6.00003H29.998V4.00003C29.998 2.89547 30.8934 2.00003 31.998 2.00003ZM13.998 10.0036V12C13.998 13.1046 14.8935 14 15.998 14C17.1026 14 17.998 13.1046 17.998 12V10H29.998V12C29.998 13.1046 30.8934 14 31.998 14C33.1026 14 33.998 13.1046 33.998 12V10.0036C34.889 10.0098 35.5888 10.0272 36.176 10.0751C37.0528 10.1468 37.5012 10.2766 37.814 10.436C38.5667 10.8195 39.1786 11.4314 39.562 12.1841C39.7214 12.4969 39.8512 12.9453 39.9228 13.8221C39.9964 14.7223 39.998 15.8869 39.998 17.6V18H7.99805V17.6C7.99805 15.8869 7.99961 14.7223 8.07315 13.8221C8.14479 12.9453 8.27465 12.4969 8.43403 12.1841C8.81751 11.4314 9.42945 10.8195 10.1821 10.436C10.4949 10.2766 10.9433 10.1468 11.8201 10.0751C12.4073 10.0272 13.107 10.0098 13.998 10.0036Z" fill="url(#paint0_linear_1186_19168)"/>
<defs>
<linearGradient id="paint0_linear_1186_19168" x1="23.998" y1="2.00003" x2="23.998" y2="46" gradientUnits="userSpaceOnUse">
<stop stop-color="#008DF2"/>
<stop offset="1" stop-color="#7EC5F8"/>
</linearGradient>
</defs>
</svg>