<svg width="64" height="64" viewBox="0 0 64 64" fill="none" xmlns="http://www.w3.org/2000/svg">
<path d="M58.68 37.0983L63.9326 13.6983C64.3118 12.0088 63.0434 10.4 61.3322 10.4H17.6898L16.6713 5.35883C16.4176 4.10231 15.3256 3.19995 14.0588 3.19995H2.66667C1.19389 3.19995 0 4.40876 0 5.89995V7.69995C0 9.19114 1.19389 10.4 2.66667 10.4H10.4314L18.2368 49.0364C16.3694 50.1237 15.1111 52.1624 15.1111 54.5C15.1111 57.9794 17.8969 60.7999 21.3333 60.7999C24.7698 60.7999 27.5556 57.9794 27.5556 54.5C27.5556 52.7366 26.8392 51.1435 25.6862 50H48.9803C47.8274 51.1435 47.1111 52.7366 47.1111 54.5C47.1111 57.9794 49.8969 60.7999 53.3333 60.7999C56.7698 60.7999 59.5556 57.9794 59.5556 54.5C59.5556 52.0056 58.1236 49.8501 56.0468 48.8294L56.6598 46.0983C57.039 44.4088 55.7707 42.7999 54.0594 42.7999H24.2352L23.508 39.2H56.0797C57.3248 39.2 58.4041 38.3276 58.68 37.0983Z" fill="url(#paint0_linear_1366_25028)"/>
<defs>
<linearGradient id="paint0_linear_1366_25028" x1="32" y1="3.19995" x2="32" y2="60.7999" gradientUnits="userSpaceOnUse">
<stop stop-color="#918FDE"/>
<stop offset="1" stop-color="#4B358F"/>
</linearGradient>
</defs>
</svg>