
<svg width="40" height="40" viewBox="0 0 40 40" fill="none" xmlns="http://www.w3.org/2000/svg">
<g clip-path="url(#clip0_2056_64114)">
<rect width="40" height="40" rx="13.3333" fill="url(#paint0_linear_2056_64114)"/>
<ellipse opacity="0.4" cx="40.9099" cy="40.3134" rx="39.1667" ry="16.6667" transform="rotate(45 40.9099 40.3134)" fill="url(#paint1_radial_2056_64114)"/>
<ellipse cx="-4.0901" cy="-4.68662" rx="39.1667" ry="16.6667" transform="rotate(45 -4.0901 -4.68662)" fill="url(#paint2_radial_2056_64114)"/>
<rect opacity="0.5" x="0.416667" y="0.416667" width="39.1667" height="39.1667" rx="12.9167" stroke="#C56905" stroke-width="0.833333"/>
<path d="M22.7135 13.7502C27.1992 13.7502 30.8385 12.5356 30.8385 11.0418C30.8385 9.54801 27.1992 8.3335 22.7135 8.3335C18.2279 8.3335 14.5885 9.54801 14.5885 11.0418C14.5885 12.5356 18.2279 13.7502 22.7135 13.7502ZM17.2969 15.1043C12.8112 15.1043 9.17188 16.6193 9.17188 18.4897C9.17188 20.3602 12.8112 21.8752 17.2969 21.8752C21.7826 21.8752 25.4219 20.3602 25.4219 18.4897C25.4219 16.6193 21.7826 15.1043 17.2969 15.1043Z" fill="white"/>
<path opacity="0.7" d="M9.17188 27.1516V28.9586C9.17188 30.4524 12.8112 31.6669 17.2969 31.6669C21.7826 31.6669 25.4219 30.4524 25.4219 28.9586V27.1516C23.6742 28.3831 20.4792 28.9586 17.2969 28.9586C14.1146 28.9586 10.9196 28.3831 9.17188 27.1516ZM22.7135 15.4169C27.1992 15.4169 30.8385 14.2024 30.8385 12.7086C30.8385 11.2148 27.1992 10.0002 22.7135 10.0002C18.2279 10.0002 14.5885 11.2148 14.5885 12.7086C14.5885 14.2024 18.2279 15.4169 22.7135 15.4169ZM9.17188 22.7125V24.8961C9.17188 26.3899 12.8112 27.6044 17.2969 27.6044C21.7826 27.6044 25.4219 26.3899 25.4219 24.8961V22.7125C23.6742 24.1513 20.4749 24.8961 17.2969 24.8961C14.1188 24.8961 10.9196 24.1513 9.17188 22.7125ZM26.776 23.178C29.2008 22.7083 30.8385 21.8365 30.8385 20.8336V19.0266C29.8568 19.7206 28.4137 20.1946 26.776 20.4866V23.178ZM17.2969 16.7711C12.8112 16.7711 9.17188 18.2861 9.17188 20.1565C9.17188 22.0269 12.8112 23.5419 17.2969 23.5419C21.7826 23.5419 25.4219 22.0269 25.4219 20.1565C25.4219 18.2861 21.7826 16.7711 17.2969 16.7711ZM26.5771 19.1536C29.1162 18.6965 30.8385 17.7994 30.8385 16.7711V14.9641C29.3363 16.0263 26.8887 15.6982 24.1719 15.8336C25.4202 16.4387 26.2048 18.1506 26.5771 19.1536Z" fill="#AE4E00"/>
<path d="M9.17188 26.3181V28.1251C9.17188 29.6189 12.8112 30.8334 17.2969 30.8334C21.7826 30.8334 25.4219 29.6189 25.4219 28.1251V26.3181C23.6742 27.5496 20.4792 28.1251 17.2969 28.1251C14.1146 28.1251 10.9196 27.5496 9.17188 26.3181ZM22.7135 14.5834C27.1992 14.5834 30.8385 13.3689 30.8385 11.8751C30.8385 10.3813 27.1992 9.16675 22.7135 9.16675C18.2279 9.16675 14.5885 10.3813 14.5885 11.8751C14.5885 13.3689 18.2279 14.5834 22.7135 14.5834ZM9.17188 21.879V24.0626C9.17188 25.5564 12.8112 26.7709 17.2969 26.7709C21.7826 26.7709 25.4219 25.5564 25.4219 24.0626V21.879C23.6742 23.3178 20.4749 24.0626 17.2969 24.0626C14.1188 24.0626 10.9196 23.3178 9.17188 21.879ZM26.776 22.3445C29.2008 21.8748 30.8385 21.003 30.8385 20.0001V18.1931C29.8568 18.8871 28.4137 19.3611 26.776 19.6531V22.3445ZM17.2969 15.9376C12.8112 15.9376 9.17188 17.4526 9.17188 19.323C9.17188 21.1934 12.8112 22.7084 17.2969 22.7084C21.7826 22.7084 25.4219 21.1934 25.4219 19.323C25.4219 17.4526 21.7826 15.9376 17.2969 15.9376ZM26.5771 18.3201C29.1162 17.863 30.8385 16.9659 30.8385 15.9376V14.1306C29.3363 15.1928 26.7549 15.7641 24.0381 15.8995C25.2865 16.5046 26.2048 17.3171 26.5771 18.3201Z" fill="#FFF59B"/>
</g>
<defs>
<linearGradient id="paint0_linear_2056_64114" x1="20" y1="0" x2="20" y2="40" gradientUnits="userSpaceOnUse">
<stop stop-color="#FFC800"/>
<stop offset="1" stop-color="#F79000"/>
</linearGradient>
<radialGradient id="paint1_radial_2056_64114" cx="0" cy="0" r="1" gradientUnits="userSpaceOnUse" gradientTransform="translate(40.9099 40.3134) rotate(90) scale(16.6667 39.1667)">
<stop stop-color="#FFF59B"/>
<stop offset="1" stop-color="#FFF59B" stop-opacity="0"/>
</radialGradient>
<radialGradient id="paint2_radial_2056_64114" cx="0" cy="0" r="1" gradientUnits="userSpaceOnUse" gradientTransform="translate(-4.0901 -4.68662) rotate(90) scale(16.6667 39.1667)">
<stop stop-color="#FFF59B"/>
<stop offset="1" stop-color="#FFF59B" stop-opacity="0"/>
</radialGradient>
<clipPath id="clip0_2056_64114">
<rect width="40" height="40" rx="13.3333" fill="white"/>
</clipPath>
</defs>
</svg>
