<svg width="48" height="48" viewBox="0 0 48 48" fill="none" xmlns="http://www.w3.org/2000/svg">
<path fill-rule="evenodd" clip-rule="evenodd" d="M37.5538 18C37.5694 18 37.5848 18 37.6 18H42.4C42.4152 18 42.4306 18 42.4464 18C42.6846 17.9999 42.969 17.9998 43.2196 18.0203C43.5102 18.044 43.9262 18.1049 44.362 18.327C44.9264 18.6146 45.3854 19.0736 45.673 19.6381C45.8952 20.074 45.956 20.49 45.9798 20.7804C46.0002 21.031 46.0002 21.3156 46 21.5538C46 21.5694 46 21.5848 46 21.6V42.4C46 42.4152 46 42.4306 46 42.4462C46.0002 42.6846 46.0002 42.969 45.9798 43.2196C45.956 43.5102 45.8952 43.9262 45.673 44.362C45.3854 44.9264 44.9264 45.3854 44.362 45.673C43.9262 45.8952 43.5102 45.956 43.2196 45.9798C42.969 46.0002 42.6846 46.0002 42.4462 46C42.4306 46 42.4152 46 42.4 46H21.6C21.5848 46 21.5694 46 21.5538 46C21.3154 46.0002 21.031 46.0002 20.7804 45.9798C20.49 45.956 20.074 45.8952 19.6381 45.673C19.0736 45.3854 18.6146 44.9264 18.327 44.362C18.1049 43.9262 18.044 43.5102 18.0203 43.2196C17.9998 42.969 17.9999 42.6846 18 42.4462C18 42.4306 18 42.4152 18 42.4V37.6C18 37.5848 18 37.5694 18 37.5538C17.9999 37.3156 17.9998 37.031 18.0203 36.7804C18.044 36.49 18.1049 36.074 18.327 35.638C18.6146 35.0736 19.0736 34.6146 19.6381 34.327C20.074 34.105 20.49 34.044 20.7804 34.0202C21.031 33.9998 21.3156 34 21.5538 34C21.5694 34 21.5848 34 21.6 34H26V29.6C26 29.5848 26 29.5694 26 29.5538C26 29.3156 25.9998 29.031 26.0202 28.7804C26.044 28.49 26.105 28.074 26.327 27.638C26.6146 27.0736 27.0736 26.6146 27.638 26.327C28.074 26.105 28.49 26.044 28.7804 26.0202C29.031 25.9998 29.3156 26 29.5538 26C29.5694 26 29.5848 26 29.6 26H34V21.6C34 21.5848 34 21.5694 34 21.5538C34 21.3156 33.9998 21.031 34.0202 20.7804C34.044 20.49 34.105 20.074 34.327 19.6381C34.6146 19.0736 35.0736 18.6146 35.638 18.327C36.074 18.1049 36.49 18.044 36.7804 18.0203C37.031 17.9998 37.3156 17.9999 37.5538 18Z" fill="#212121"/>
<path fill-rule="evenodd" clip-rule="evenodd" d="M37.5538 18C37.5694 18 37.5848 18 37.6 18H42.4C42.4152 18 42.4306 18 42.4464 18C42.6846 17.9999 42.969 17.9998 43.2196 18.0203C43.5102 18.044 43.9262 18.1049 44.362 18.327C44.9264 18.6146 45.3854 19.0736 45.673 19.6381C45.8952 20.074 45.956 20.49 45.9798 20.7804C46.0002 21.031 46.0002 21.3156 46 21.5538C46 21.5694 46 21.5848 46 21.6V42.4C46 42.4152 46 42.4306 46 42.4462C46.0002 42.6846 46.0002 42.969 45.9798 43.2196C45.956 43.5102 45.8952 43.9262 45.673 44.362C45.3854 44.9264 44.9264 45.3854 44.362 45.673C43.9262 45.8952 43.5102 45.956 43.2196 45.9798C42.969 46.0002 42.6846 46.0002 42.4462 46C42.4306 46 42.4152 46 42.4 46H21.6C21.5848 46 21.5694 46 21.5538 46C21.3154 46.0002 21.031 46.0002 20.7804 45.9798C20.49 45.956 20.074 45.8952 19.6381 45.673C19.0736 45.3854 18.6146 44.9264 18.327 44.362C18.1049 43.9262 18.044 43.5102 18.0203 43.2196C17.9998 42.969 17.9999 42.6846 18 42.4462C18 42.4306 18 42.4152 18 42.4V37.6C18 37.5848 18 37.5694 18 37.5538C17.9999 37.3156 17.9998 37.031 18.0203 36.7804C18.044 36.49 18.1049 36.074 18.327 35.638C18.6146 35.0736 19.0736 34.6146 19.6381 34.327C20.074 34.105 20.49 34.044 20.7804 34.0202C21.031 33.9998 21.3156 34 21.5538 34C21.5694 34 21.5848 34 21.6 34H26V29.6C26 29.5848 26 29.5694 26 29.5538C26 29.3156 25.9998 29.031 26.0202 28.7804C26.044 28.49 26.105 28.074 26.327 27.638C26.6146 27.0736 27.0736 26.6146 27.638 26.327C28.074 26.105 28.49 26.044 28.7804 26.0202C29.031 25.9998 29.3156 26 29.5538 26C29.5694 26 29.5848 26 29.6 26H34V21.6C34 21.5848 34 21.5694 34 21.5538C34 21.3156 33.9998 21.031 34.0202 20.7804C34.044 20.49 34.105 20.074 34.327 19.6381C34.6146 19.0736 35.0736 18.6146 35.638 18.327C36.074 18.1049 36.49 18.044 36.7804 18.0203C37.031 17.9998 37.3156 17.9999 37.5538 18Z" fill="url(#paint0_linear_1186_19173)"/>
<path fill-rule="evenodd" clip-rule="evenodd" d="M21.5538 10C21.5694 10 21.5848 10 21.6 10H26.4C26.4152 10 26.4306 10 26.4464 10C26.6846 9.99991 26.969 9.99981 27.2196 10.0203C27.5102 10.044 27.9262 10.1049 28.362 10.327C28.9264 10.6146 29.3854 11.0736 29.673 11.6381C29.8952 12.0739 29.956 12.4899 29.9798 12.7804C30.0002 13.031 30.0002 13.3155 30 13.5537C30 13.5694 30 13.5848 30 13.6V18.4C30 18.4152 30 18.4307 30 18.4463C30.0002 18.6845 30.0002 18.969 29.9798 19.2197C29.956 19.5101 29.8952 19.9261 29.673 20.362C29.3854 20.9264 28.9264 21.3854 28.362 21.673C27.9262 21.8952 27.5102 21.956 27.2196 21.9798C26.969 22.0002 26.6846 22.0002 26.4464 22C26.4306 22 26.4152 22 26.4 22H21.6C21.5848 22 21.5694 22 21.5538 22C21.3156 22.0002 21.031 22.0002 20.7804 21.9798C20.49 21.956 20.074 21.8952 19.6381 21.673C19.0736 21.3854 18.6146 20.9264 18.327 20.362C18.1049 19.9261 18.044 19.5101 18.0203 19.2197C17.9998 18.969 17.9999 18.6845 18 18.4463C18 18.4307 18 18.4152 18 18.4V13.6C18 13.5848 18 13.5694 18 13.5537C17.9999 13.3155 17.9998 13.031 18.0203 12.7804C18.044 12.4899 18.1049 12.0739 18.327 11.6381C18.6146 11.0736 19.0736 10.6146 19.6381 10.327C20.074 10.1049 20.49 10.044 20.7804 10.0203C21.031 9.99981 21.3156 9.99991 21.5538 10Z" fill="#212121"/>
<path fill-rule="evenodd" clip-rule="evenodd" d="M21.5538 10C21.5694 10 21.5848 10 21.6 10H26.4C26.4152 10 26.4306 10 26.4464 10C26.6846 9.99991 26.969 9.99981 27.2196 10.0203C27.5102 10.044 27.9262 10.1049 28.362 10.327C28.9264 10.6146 29.3854 11.0736 29.673 11.6381C29.8952 12.0739 29.956 12.4899 29.9798 12.7804C30.0002 13.031 30.0002 13.3155 30 13.5537C30 13.5694 30 13.5848 30 13.6V18.4C30 18.4152 30 18.4307 30 18.4463C30.0002 18.6845 30.0002 18.969 29.9798 19.2197C29.956 19.5101 29.8952 19.9261 29.673 20.362C29.3854 20.9264 28.9264 21.3854 28.362 21.673C27.9262 21.8952 27.5102 21.956 27.2196 21.9798C26.969 22.0002 26.6846 22.0002 26.4464 22C26.4306 22 26.4152 22 26.4 22H21.6C21.5848 22 21.5694 22 21.5538 22C21.3156 22.0002 21.031 22.0002 20.7804 21.9798C20.49 21.956 20.074 21.8952 19.6381 21.673C19.0736 21.3854 18.6146 20.9264 18.327 20.362C18.1049 19.9261 18.044 19.5101 18.0203 19.2197C17.9998 18.969 17.9999 18.6845 18 18.4463C18 18.4307 18 18.4152 18 18.4V13.6C18 13.5848 18 13.5694 18 13.5537C17.9999 13.3155 17.9998 13.031 18.0203 12.7804C18.044 12.4899 18.1049 12.0739 18.327 11.6381C18.6146 11.0736 19.0736 10.6146 19.6381 10.327C20.074 10.1049 20.49 10.044 20.7804 10.0203C21.031 9.99981 21.3156 9.99991 21.5538 10Z" fill="url(#paint1_linear_1186_19173)"/>
<path fill-rule="evenodd" clip-rule="evenodd" d="M7.55373 22C7.56937 22 7.58481 22 7.60001 22H12.4C12.4152 22 12.4307 22 12.4463 22C12.6845 22 12.969 21.9998 13.2197 22.0202C13.5101 22.044 13.9261 22.105 14.362 22.327C14.9265 22.6146 15.3854 23.0736 15.673 23.638C15.8951 24.074 15.956 24.49 15.9798 24.7804C16.0002 25.031 16.0001 25.3156 16 25.5538C16 25.5694 16 25.5848 16 25.6V30.4C16 30.4152 16 30.4306 16 30.4464C16.0001 30.6846 16.0002 30.969 15.9798 31.2196C15.956 31.5102 15.8951 31.9262 15.673 32.362C15.3854 32.9264 14.9265 33.3854 14.362 33.673C13.9261 33.8952 13.5101 33.956 13.2197 33.9798C12.969 34.0002 12.6845 34.0002 12.4463 34C12.4307 34 12.4152 34 12.4 34H7.60001C7.58481 34 7.56937 34 7.55373 34C7.31551 34.0002 7.03099 34.0002 6.78035 33.9798C6.48991 33.956 6.07393 33.8952 5.63805 33.673C5.07355 33.3854 4.61461 32.9264 4.32699 32.362C4.10489 31.9262 4.04401 31.5102 4.02029 31.2196C3.99981 30.969 3.99991 30.6846 4.00001 30.4464C4.00001 30.4306 4.00001 30.4152 4.00001 30.4V25.6C4.00001 25.5848 4.00001 25.5694 4.00001 25.5538C3.99991 25.3156 3.99981 25.031 4.02029 24.7804C4.04401 24.49 4.10489 24.074 4.32699 23.638C4.61461 23.0736 5.07355 22.6146 5.63805 22.327C6.07393 22.105 6.48991 22.044 6.78035 22.0202C7.03099 21.9998 7.31551 22 7.55373 22Z" fill="#212121"/>
<path fill-rule="evenodd" clip-rule="evenodd" d="M7.55373 22C7.56937 22 7.58481 22 7.60001 22H12.4C12.4152 22 12.4307 22 12.4463 22C12.6845 22 12.969 21.9998 13.2197 22.0202C13.5101 22.044 13.9261 22.105 14.362 22.327C14.9265 22.6146 15.3854 23.0736 15.673 23.638C15.8951 24.074 15.956 24.49 15.9798 24.7804C16.0002 25.031 16.0001 25.3156 16 25.5538C16 25.5694 16 25.5848 16 25.6V30.4C16 30.4152 16 30.4306 16 30.4464C16.0001 30.6846 16.0002 30.969 15.9798 31.2196C15.956 31.5102 15.8951 31.9262 15.673 32.362C15.3854 32.9264 14.9265 33.3854 14.362 33.673C13.9261 33.8952 13.5101 33.956 13.2197 33.9798C12.969 34.0002 12.6845 34.0002 12.4463 34C12.4307 34 12.4152 34 12.4 34H7.60001C7.58481 34 7.56937 34 7.55373 34C7.31551 34.0002 7.03099 34.0002 6.78035 33.9798C6.48991 33.956 6.07393 33.8952 5.63805 33.673C5.07355 33.3854 4.61461 32.9264 4.32699 32.362C4.10489 31.9262 4.04401 31.5102 4.02029 31.2196C3.99981 30.969 3.99991 30.6846 4.00001 30.4464C4.00001 30.4306 4.00001 30.4152 4.00001 30.4V25.6C4.00001 25.5848 4.00001 25.5694 4.00001 25.5538C3.99991 25.3156 3.99981 25.031 4.02029 24.7804C4.04401 24.49 4.10489 24.074 4.32699 23.638C4.61461 23.0736 5.07355 22.6146 5.63805 22.327C6.07393 22.105 6.48991 22.044 6.78035 22.0202C7.03099 21.9998 7.31551 22 7.55373 22Z" fill="url(#paint2_linear_1186_19173)"/>
<path fill-rule="evenodd" clip-rule="evenodd" d="M5.55373 2.00001C5.56937 2.00001 5.58481 2.00001 5.60001 2.00001H10.4C10.4152 2.00001 10.4307 2.00001 10.4463 2.00001C10.6845 1.99992 10.969 1.99981 11.2197 2.02029C11.5101 2.04401 11.9261 2.10489 12.362 2.32699C12.9265 2.61461 13.3854 3.07355 13.673 3.63805C13.8951 4.07393 13.956 4.48991 13.9798 4.78035C14.0002 5.03099 14.0001 5.31551 14 5.55373C14 5.56937 14 5.58481 14 5.60001V10.4C14 10.4152 14 10.4307 14 10.4463C14.0001 10.6845 14.0002 10.969 13.9798 11.2197C13.956 11.5101 13.8951 11.9261 13.673 12.362C13.3854 12.9265 12.9265 13.3854 12.362 13.673C11.9261 13.8951 11.5101 13.956 11.2197 13.9798C10.969 14.0002 10.6845 14.0001 10.4463 14C10.4307 14 10.4152 14 10.4 14H5.60001C5.58481 14 5.56937 14 5.55373 14C5.31551 14.0001 5.03099 14.0002 4.78035 13.9798C4.48991 13.956 4.07393 13.8951 3.63805 13.673C3.07355 13.3854 2.61461 12.9265 2.32699 12.362C2.10489 11.9261 2.04401 11.5101 2.02029 11.2197C1.99981 10.969 1.99992 10.6845 2.00001 10.4463C2.00001 10.4307 2.00001 10.4152 2.00001 10.4V5.60001C2.00001 5.58481 2.00001 5.56937 2.00001 5.55373C1.99992 5.31551 1.99981 5.03099 2.02029 4.78035C2.04401 4.48991 2.10489 4.07393 2.32699 3.63805C2.61461 3.07355 3.07355 2.61461 3.63805 2.32699C4.07393 2.10489 4.48991 2.04401 4.78035 2.02029C5.03099 1.99981 5.31551 1.99992 5.55373 2.00001Z" fill="#212121"/>
<path fill-rule="evenodd" clip-rule="evenodd" d="M5.55373 2.00001C5.56937 2.00001 5.58481 2.00001 5.60001 2.00001H10.4C10.4152 2.00001 10.4307 2.00001 10.4463 2.00001C10.6845 1.99992 10.969 1.99981 11.2197 2.02029C11.5101 2.04401 11.9261 2.10489 12.362 2.32699C12.9265 2.61461 13.3854 3.07355 13.673 3.63805C13.8951 4.07393 13.956 4.48991 13.9798 4.78035C14.0002 5.03099 14.0001 5.31551 14 5.55373C14 5.56937 14 5.58481 14 5.60001V10.4C14 10.4152 14 10.4307 14 10.4463C14.0001 10.6845 14.0002 10.969 13.9798 11.2197C13.956 11.5101 13.8951 11.9261 13.673 12.362C13.3854 12.9265 12.9265 13.3854 12.362 13.673C11.9261 13.8951 11.5101 13.956 11.2197 13.9798C10.969 14.0002 10.6845 14.0001 10.4463 14C10.4307 14 10.4152 14 10.4 14H5.60001C5.58481 14 5.56937 14 5.55373 14C5.31551 14.0001 5.03099 14.0002 4.78035 13.9798C4.48991 13.956 4.07393 13.8951 3.63805 13.673C3.07355 13.3854 2.61461 12.9265 2.32699 12.362C2.10489 11.9261 2.04401 11.5101 2.02029 11.2197C1.99981 10.969 1.99992 10.6845 2.00001 10.4463C2.00001 10.4307 2.00001 10.4152 2.00001 10.4V5.60001C2.00001 5.58481 2.00001 5.56937 2.00001 5.55373C1.99992 5.31551 1.99981 5.03099 2.02029 4.78035C2.04401 4.48991 2.10489 4.07393 2.32699 3.63805C2.61461 3.07355 3.07355 2.61461 3.63805 2.32699C4.07393 2.10489 4.48991 2.04401 4.78035 2.02029C5.03099 1.99981 5.31551 1.99992 5.55373 2.00001Z" fill="url(#paint3_linear_1186_19173)"/>
<defs>
<linearGradient id="paint0_linear_1186_19173" x1="24" y1="2" x2="24" y2="46" gradientUnits="userSpaceOnUse">
<stop stop-color="#008DF2"/>
<stop offset="1" stop-color="#7EC5F8"/>
</linearGradient>
<linearGradient id="paint1_linear_1186_19173" x1="24" y1="2" x2="24" y2="46" gradientUnits="userSpaceOnUse">
<stop stop-color="#008DF2"/>
<stop offset="1" stop-color="#7EC5F8"/>
</linearGradient>
<linearGradient id="paint2_linear_1186_19173" x1="24" y1="2" x2="24" y2="46" gradientUnits="userSpaceOnUse">
<stop stop-color="#008DF2"/>
<stop offset="1" stop-color="#7EC5F8"/>
</linearGradient>
<linearGradient id="paint3_linear_1186_19173" x1="24" y1="2" x2="24" y2="46" gradientUnits="userSpaceOnUse">
<stop stop-color="#008DF2"/>
<stop offset="1" stop-color="#7EC5F8"/>
</linearGradient>
</defs>
</svg>