
<svg width="351" height="250" viewBox="0 0 351 250" fill="none" xmlns="http://www.w3.org/2000/svg">
<path opacity="0.25" d="M0 69.5311L177.5 185.504L351 89.5311V298L177.5 187L108 250H65L177 186.5L0 168V69.5311Z" fill="url(#paint0_radial_1494_29100)"/>
<path opacity="0.15" d="M0 199.531L177.5 185.504L351 19.5311V48L177.5 187L178 250H165L177 186.5L0 218V199.531Z" fill="url(#paint1_radial_1494_29100)"/>
<path d="M146.843 48.2304L118.086 37.6121L102.215 88.6998L128.119 98.2432L146.843 48.2304H146.843Z" fill="#66B5F9"/>
<path d="M239.022 35.7093L205.082 48.2276L205.083 48.2305L205.086 48.2374H205.116L223.456 97.3261L270.382 81.0813L239.099 35.6808L239.022 35.7093Z" fill="#0885D3"/>
<path d="M146.841 48.2305L128.117 98.2432L223.455 97.3261L205.115 48.2375H205.084L146.841 48.2305H146.841Z" fill="#EEFAFF"/>
<path d="M177.637 186.942L270.382 81.0814L223.457 97.3261L177.637 186.942Z" fill="#80D4F9"/>
<path d="M177.635 186.942L223.455 97.3262L128.117 98.2432L177.635 186.942Z" fill="#B1E5FF"/>
<path d="M165.224 38.1512C168.054 40.3604 171.791 41.8514 175.477 42.8298C183.229 44.8871 191.548 44.9528 199.612 44.6819C208.515 44.3827 217.214 42.7968 225.528 40.188C229.78 38.8542 233.911 37.2765 237.928 35.52L175.974 26.9937L160.505 29.1227C160.44 29.5097 160.409 29.9079 160.42 30.3184C160.498 33.3377 162.628 36.1242 165.224 38.1512Z" fill="#B4E4FE"/>
<path d="M205.083 48.2304L205.082 48.2276L239.022 35.7092L239.099 35.6807L239.1 35.6806L237.931 35.5198C233.914 37.2764 229.783 38.8539 225.532 40.1878C217.217 42.7965 208.518 44.3825 199.616 44.6817C191.551 44.9527 183.233 44.8869 175.481 42.8295C171.794 41.8511 168.058 40.3601 165.228 38.151C162.631 36.124 160.501 33.3375 160.423 30.3183C160.413 29.9078 160.443 29.5096 160.508 29.1226L155.701 29.7841L112.855 35.6806H112.856L146.843 48.2303L205.083 48.2304Z" fill="#B3E5FE"/>
<path d="M118.086 37.6121L112.856 35.6808L81.543 81.084L91.8224 84.871L118.086 37.6121Z" fill="#66B5F9"/>
<path d="M91.8226 84.8709L81.5432 81.084L81.543 81.0839V81.084L81.5433 81.0842L177.637 186.942L91.8224 84.8712L91.8226 84.8709Z" fill="#66B5F9"/>
<path d="M102.215 88.6998L177.637 186.942L128.119 98.2432L102.215 88.6998Z" fill="#1E89E9"/>
<path d="M118.084 37.6121L91.8205 84.871L91.8203 84.8712L177.635 186.942L102.213 88.6998L118.084 37.6121Z" fill="#B3E5FE"/>
<path d="M211.793 49.69L234.056 49.3697L265.107 78.9836L238.455 41.1145L211.793 49.69Z" fill="#B4E4FE"/>
<defs>
<radialGradient id="paint0_radial_1494_29100" cx="0" cy="0" r="1" gradientUnits="userSpaceOnUse" gradientTransform="translate(175.5 183.766) rotate(90) scale(114.234 175.5)">
<stop stop-color="#007AFF"/>
<stop offset="1" stop-color="#007AFF" stop-opacity="0"/>
</radialGradient>
<radialGradient id="paint1_radial_1494_29100" cx="0" cy="0" r="1" gradientUnits="userSpaceOnUse" gradientTransform="translate(175.5 134.766) rotate(90) scale(115.234 175.5)">
<stop stop-color="#007AFF"/>
<stop offset="1" stop-color="#007AFF" stop-opacity="0"/>
</radialGradient>
</defs>
</svg>
