<svg width="64" height="64" viewBox="0 0 64 64" fill="none" xmlns="http://www.w3.org/2000/svg">
<path d="M37.3121 5.66405C37.383 5.09252 37.267 4.51341 36.9813 4.01332C36.6957 3.51323 36.2559 3.11904 35.7276 2.88972C35.1993 2.6604 34.611 2.60826 34.0506 2.74111C33.4902 2.87396 32.9879 3.18465 32.6188 3.62672L8.80547 32.2001C8.39481 32.6934 7.97881 33.1947 7.67481 33.6347C7.38681 34.0481 6.86414 34.8667 6.84814 35.9387C6.83869 36.5457 6.96752 37.1469 7.22487 37.6967C7.48222 38.2465 7.86133 38.7305 8.33347 39.1121C9.16814 39.7867 10.1308 39.9067 10.6348 39.9521C11.1681 40.0001 11.8161 40.0001 12.4588 40.0001H28.9788L26.6855 58.3361C26.6137 58.9082 26.7293 59.4882 27.015 59.9892C27.3007 60.4901 27.741 60.8849 28.2701 61.1144C28.7991 61.3439 29.3882 61.3957 29.9492 61.2621C30.5102 61.1285 31.0127 60.8167 31.3815 60.3734L55.1948 31.8001C55.6055 31.3067 56.0215 30.8054 56.3255 30.3654C56.6135 29.9521 57.1361 29.1334 57.1521 28.0614C57.1616 27.4544 57.0328 26.8532 56.7754 26.3034C56.5181 25.7536 56.139 25.2696 55.6668 24.8881C54.8321 24.2134 53.8695 24.0934 53.3655 24.0481C52.8321 24.0001 52.1868 24.0001 51.5415 24.0001H35.0215L37.3148 5.66405H37.3121Z" fill="url(#paint0_linear_1366_25060)"/>
<defs>
<linearGradient id="paint0_linear_1366_25060" x1="32.0001" y1="2.66919" x2="32.0001" y2="61.3347" gradientUnits="userSpaceOnUse">
<stop stop-color="#F9DF93"/>
<stop offset="1" stop-color="#EB7A00"/>
</linearGradient>
</defs>
</svg>