
<svg width="2380" height="180" viewBox="0 0 2380 180" fill="none" xmlns="http://www.w3.org/2000/svg">
<rect width="180" height="180" rx="50" fill="#10BC4C"/>
<path fill-rule="evenodd" clip-rule="evenodd" d="M90.027 45C65.2621 45 45 65.2621 45 90.027C45 114.792 65.2621 135.054 90.027 135.054C114.792 135.054 135.054 114.792 135.054 90.027C135.054 65.2621 115.017 45 90.027 45ZM110.739 110.064C109.839 111.415 108.263 111.865 106.912 110.965C96.3308 104.436 83.0478 103.085 67.2884 106.687C65.7124 107.137 64.3616 106.012 63.9113 104.661C63.4611 103.085 64.5867 101.734 65.9376 101.284C83.0478 97.4565 97.9067 99.0324 109.614 106.237C111.19 106.912 111.415 108.713 110.739 110.064ZM116.143 97.6816C115.017 99.2575 112.991 99.9329 111.415 98.8073C99.2575 91.3778 80.7965 89.1265 66.613 93.6292C64.8119 94.0794 62.7857 93.1789 62.3354 91.3778C61.8851 89.5767 62.7857 87.5505 64.5867 87.1002C81.0216 82.1473 101.284 84.6238 115.242 93.1789C116.593 93.8543 117.268 96.1056 116.143 97.6816ZM116.593 85.074C102.184 76.5189 78.0948 75.6184 64.3616 79.8959C62.1103 80.5713 59.8589 79.2205 59.1835 77.1943C58.5081 74.943 59.8589 72.6916 61.8851 72.0162C77.8697 67.2884 104.211 68.1889 120.87 78.0948C122.897 79.2205 123.572 81.9221 122.446 83.9484C121.321 85.5243 118.619 86.1997 116.593 85.074Z" fill="white"/>
<rect x="200" width="180" height="180" rx="50" fill="#FF3000"/>
<path fill-rule="evenodd" clip-rule="evenodd" d="M329.187 56.1436C333.61 57.3382 337.087 60.8236 338.262 65.2418C340.4 73.26 340.4 90 340.4 90C340.4 90 340.4 106.74 338.262 114.758C337.071 119.193 333.594 122.678 329.187 123.856C321.189 126 289.1 126 289.1 126C289.1 126 257.028 126 249.013 123.856C244.59 122.662 241.114 119.176 239.938 114.758C237.8 106.74 237.8 90 237.8 90C237.8 90 237.8 73.26 239.938 65.2418C241.13 60.8073 244.607 57.3218 249.013 56.1436C257.028 54 289.1 54 289.1 54C289.1 54 321.189 54 329.187 56.1436ZM305.504 90L278.85 105.431V74.5691L305.504 90Z" fill="white"/>
<rect x="400" width="180" height="180" rx="50" fill="#33CCFF"/>
<path d="M534.67 61.2982C531.698 62.5773 528.574 63.468 525.374 63.9483C526.87 63.6918 529.071 60.9991 529.947 59.9091C531.279 58.2651 532.293 56.3883 532.939 54.374C532.939 54.2244 533.089 54.0107 532.939 53.9039C532.864 53.8627 532.78 53.8412 532.694 53.8412C532.608 53.8412 532.523 53.8627 532.448 53.9039C528.973 55.7854 525.276 57.2215 521.442 58.1781C521.308 58.2189 521.166 58.2226 521.03 58.1887C520.895 58.1548 520.771 58.0846 520.672 57.9857C520.374 57.6304 520.053 57.2949 519.711 56.9813C518.147 55.5803 516.373 54.4337 514.453 53.5833C511.862 52.5203 509.064 52.0599 506.268 52.2369C503.556 52.4082 500.908 53.1357 498.489 54.374C496.107 55.6796 494.014 57.4533 492.334 59.5886C490.568 61.7863 489.293 64.3367 488.595 67.0684C488.019 69.6668 487.953 72.3524 488.402 74.9757C488.402 75.4245 488.402 75.4886 488.018 75.4245C472.78 73.1805 460.278 67.7737 450.063 56.1692C449.614 55.6563 449.379 55.6563 449.015 56.1692C444.57 62.9224 446.729 73.608 452.285 78.8866C453.033 79.5919 453.802 80.2757 454.615 80.9169C452.067 80.736 449.582 80.0456 447.306 78.8866C446.878 78.6088 446.643 78.7584 446.622 79.2713C446.561 79.9824 446.561 80.6973 446.622 81.4084C447.068 84.8162 448.411 88.0444 450.513 90.763C452.616 93.4815 455.403 95.5929 458.59 96.881C459.366 97.2137 460.176 97.4644 461.005 97.629C458.646 98.0933 456.227 98.1655 453.845 97.8427C453.332 97.7359 453.14 98.0137 453.332 98.5052C456.474 107.054 463.291 109.661 468.292 111.114C468.976 111.221 469.66 111.221 470.429 111.392C470.429 111.392 470.429 111.392 470.301 111.52C468.826 114.213 462.864 116.029 460.128 116.97C455.135 118.763 449.812 119.449 444.527 118.979C443.694 118.85 443.502 118.872 443.288 118.979C443.074 119.086 443.288 119.321 443.523 119.534C444.592 120.24 445.66 120.859 446.771 121.458C450.08 123.262 453.577 124.696 457.2 125.732C475.964 130.904 497.079 127.1 511.162 113.102C522.233 102.117 526.122 86.9649 526.122 71.7914C526.122 71.2144 526.827 70.8725 527.233 70.5733C530.034 68.3911 532.503 65.8139 534.564 62.9224C534.92 62.4914 535.103 61.9426 535.077 61.3837V61.3837C535.077 61.0632 535.077 61.1273 534.67 61.2982Z" fill="white"/>
<rect x="600" width="180" height="180" rx="50" fill="black"/>
<path fill-rule="evenodd" clip-rule="evenodd" d="M708.067 78.3981C713.587 82.3222 720.198 84.4188 726.97 84.3934V70.9712C725.639 70.9749 724.311 70.8324 723.011 70.5462V81.2392C716.223 81.2512 709.603 79.1306 704.085 75.1768V102.782C704.069 107.311 702.826 111.752 700.49 115.633C698.154 119.514 694.812 122.69 690.817 124.826C686.822 126.961 682.323 127.975 677.799 127.76C673.274 127.546 668.892 126.111 665.116 123.608C668.608 127.142 673.071 129.559 677.937 130.555C682.804 131.55 687.857 131.08 692.456 129.202C697.056 127.324 700.994 124.123 703.773 120.005C706.552 115.888 708.046 111.038 708.067 106.07V78.3981ZM712.966 64.7076C710.159 61.665 708.437 57.7798 708.067 53.6567V51.9118H704.309C704.774 54.5327 705.785 57.0264 707.276 59.2309C708.768 61.4355 710.706 63.3014 712.966 64.7076ZM673.818 112.982C672.516 111.279 671.718 109.244 671.515 107.11C671.311 104.975 671.712 102.826 672.67 100.908C673.628 98.9893 675.105 97.3784 676.934 96.2583C678.762 95.1382 680.868 94.5538 683.013 94.5718C684.196 94.5715 685.373 94.7525 686.502 95.1087V81.2392C685.183 81.0644 683.851 80.9896 682.52 81.0155V91.7979C679.771 90.9289 676.796 91.1265 674.186 92.3514C671.576 93.5763 669.523 95.7387 668.435 98.4085C667.346 101.078 667.303 104.06 668.313 106.76C669.323 109.461 671.312 111.682 673.886 112.982H673.818Z" fill="#EE1D52"/>
<path fill-rule="evenodd" clip-rule="evenodd" d="M704.083 75.0874C709.601 79.0411 716.221 81.1617 723.009 81.1497V70.4567C719.141 69.639 715.628 67.6281 712.964 64.7076C710.704 63.3014 708.766 61.4355 707.274 59.2309C705.783 57.0264 704.772 54.5327 704.307 51.9118H694.419V106.07C694.41 108.467 693.651 110.801 692.247 112.745C690.844 114.688 688.867 116.143 686.594 116.906C684.321 117.668 681.867 117.7 679.575 116.996C677.283 116.293 675.27 114.889 673.816 112.982C671.514 111.821 669.669 109.917 668.581 107.578C667.493 105.239 667.225 102.602 667.819 100.092C668.414 97.5818 669.837 95.3452 671.858 93.7431C673.88 92.1409 676.382 91.2665 678.962 91.261C680.145 91.2648 681.321 91.4458 682.451 91.7979V81.0155C677.569 81.1327 672.828 82.6728 668.809 85.4468C664.789 88.2208 661.668 92.108 659.827 96.6311C657.985 101.154 657.505 106.117 658.444 110.909C659.384 115.701 661.702 120.115 665.114 123.608C668.891 126.129 673.28 127.579 677.815 127.803C682.349 128.026 686.86 127.016 690.866 124.879C694.872 122.741 698.223 119.557 700.562 115.666C702.902 111.775 704.142 107.322 704.151 102.782L704.083 75.0874Z" fill="#E3E3E3"/>
<path fill-rule="evenodd" clip-rule="evenodd" d="M723.009 70.4567L723.01 67.57C719.458 67.5851 715.976 66.5931 712.966 64.7076C715.623 67.6366 719.137 69.6491 723.009 70.4567ZM704.309 51.9118C704.309 51.3973 704.152 50.8595 704.085 50.345V48.6001H690.439V102.781C690.427 105.815 689.212 108.72 687.06 110.859C684.909 112.998 681.997 114.196 678.963 114.19C677.177 114.199 675.414 113.786 673.818 112.982C675.272 114.889 677.283 116.293 679.575 116.996C681.867 117.7 684.321 117.668 686.594 116.906C688.867 116.143 690.844 114.688 692.247 112.745C693.651 110.801 694.41 108.467 694.419 106.07V51.9118H704.309ZM682.453 80.9922V77.9274C676.837 77.1646 671.129 78.3262 666.259 81.2227C661.388 84.1193 657.643 88.58 655.632 93.878C653.621 99.1761 653.464 104.999 655.186 110.398C656.908 115.796 660.409 120.453 665.116 123.608C661.73 120.107 659.436 115.694 658.515 110.91C657.595 106.127 658.088 101.179 659.934 96.6707C661.78 92.1627 664.899 88.29 668.91 85.5255C672.921 82.7611 677.65 81.2247 682.52 81.104L682.453 80.9922Z" fill="#69C9D0"/>
<rect x="800" width="180" height="180" rx="50" fill="url(#paint0_linear_3301_24018)"/>
<path d="M828.407 95.302C828.149 95.302 827.943 95.5016 827.91 95.7895L827 102.696L827.91 109.482C827.913 109.766 828.149 109.966 828.407 109.966C828.659 109.966 828.862 109.77 828.904 109.482L829.981 102.693L828.904 95.7862C828.865 95.5016 828.659 95.302 828.407 95.302V95.302ZM833.521 91.5297C833.478 91.232 833.266 91.0291 833.004 91.0291C832.742 91.0291 832.523 91.2418 832.487 91.5297C832.487 91.53 831.263 102.696 831.263 102.696L832.487 113.614C832.523 113.908 832.739 114.118 833.004 114.118C833.266 114.118 833.478 113.912 833.521 113.617L834.911 102.696L833.521 91.5297ZM852.778 81.2303C852.278 81.2303 851.862 81.6392 851.839 82.1627L850.864 102.706L851.839 115.983C851.865 116.503 852.278 116.912 852.778 116.912C853.276 116.912 853.691 116.503 853.721 115.983V115.983L854.82 102.706L853.721 82.163C853.691 81.6428 853.279 81.2306 852.778 81.2306V81.2303ZM842.809 88.3695C842.423 88.3695 842.109 88.6771 842.08 89.086L840.984 102.696L842.08 115.849C842.109 116.258 842.423 116.565 842.809 116.565C843.189 116.565 843.506 116.258 843.539 115.849L844.785 102.696L843.539 89.0828C843.536 88.6738 843.192 88.3663 842.809 88.3663V88.3695ZM862.908 116.902C863.529 116.902 864.036 116.402 864.059 115.761L865.015 102.71L864.062 75.3611C864.036 74.7198 863.532 74.2193 862.911 74.2193C862.283 74.2193 861.776 74.7231 861.756 75.3644L860.909 102.71L861.756 115.767C861.776 116.405 862.283 116.906 862.908 116.906V116.902ZM883.644 116.965C884.501 116.965 885.204 116.261 885.221 115.394V115.404V115.394L885.888 102.716L885.221 71.1308C885.204 70.267 884.498 69.5603 883.644 69.5603C882.787 69.5603 882.08 70.2637 882.067 71.134L881.471 102.71C881.471 102.729 882.067 115.407 882.067 115.407C882.08 116.264 882.79 116.971 883.644 116.971V116.965ZM873.197 116.922C873.943 116.922 874.542 116.323 874.561 115.561V115.571L875.373 102.716L874.561 75.1681C874.542 74.4058 873.94 73.8103 873.197 73.8103C872.448 73.8103 871.846 74.4058 871.83 75.1681L871.11 102.716L871.833 115.567C871.849 116.32 872.448 116.919 873.2 116.919L873.197 116.922ZM847.779 116.798C848.221 116.798 848.581 116.444 848.613 115.976L849.788 102.7L848.613 90.0676C848.61 89.5997 848.224 89.2496 847.779 89.2496C847.331 89.2496 846.971 89.603 846.945 90.0741L845.911 102.7L846.945 115.976C846.974 116.444 847.331 116.798 847.779 116.798V116.798ZM837.898 116.071C838.222 116.071 838.484 115.816 838.52 115.463L839.839 102.696L838.52 89.4492C838.481 89.0959 838.219 88.8407 837.895 88.8407C837.568 88.8407 837.306 89.0959 837.273 89.4492L836.112 102.696L837.273 115.46C837.277 115.813 837.568 116.071 837.895 116.071H837.898ZM878.409 74.7068C877.601 74.7068 876.953 75.3513 876.937 76.1725L876.279 102.713L876.937 115.486C876.953 116.297 877.601 116.942 878.409 116.942C879.217 116.942 879.862 116.3 879.881 115.476V115.486L880.621 102.713L879.881 76.166C879.862 75.3447 879.217 74.7035 878.409 74.7035V74.7068ZM857.833 116.929C858.393 116.929 858.854 116.474 858.88 115.891L859.907 102.706L858.88 77.4648C858.851 76.8825 858.393 76.4277 857.833 76.4277C857.27 76.4277 856.809 76.8825 856.786 77.4648L855.877 102.706L856.786 115.891C856.809 116.467 857.27 116.922 857.833 116.922V116.929ZM869.301 115.679V115.672L870.184 102.703L869.301 74.4319C869.281 73.7285 868.725 73.1789 868.041 73.1789C867.354 73.1789 866.801 73.7285 866.781 74.4319L865.999 102.7L866.785 115.675C866.804 116.372 867.357 116.919 868.044 116.919C868.728 116.919 869.281 116.369 869.304 115.669L869.301 115.679ZM936.044 86.4065C933.95 86.4065 931.951 86.8318 930.129 87.5941C928.912 73.8103 917.356 63.0005 903.258 63.0005C899.809 63.0005 896.446 63.681 893.475 64.8294C892.32 65.2743 892.013 65.7357 892.003 66.6288V115.165C892.016 116.101 892.743 116.879 893.655 116.974C893.695 116.975 935.772 117 936.044 117C944.488 117 951.336 110.153 951.336 101.708C951.336 93.2608 944.492 86.413 936.044 86.413V86.4065ZM888.875 66.5863C887.956 66.5863 887.203 67.3388 887.19 68.268L886.5 102.716L887.19 115.217C887.203 116.13 887.956 116.883 888.875 116.883C889.791 116.883 890.544 116.13 890.56 115.204V115.221L891.309 102.716L890.56 68.2647C890.547 67.3421 889.791 66.5863 888.875 66.5863" fill="white"/>
<path d="M1129.65 0L1050.35 0C1022.54 0 1000 22.5444 1000 50.3543V129.646C1000 157.456 1022.54 180 1050.35 180H1129.65C1157.46 180 1180 157.456 1180 129.646V50.3543C1180 22.5444 1157.46 0 1129.65 0Z" fill="#0078FF"/>
<path d="M1133.05 109.554C1127.11 103.326 1120.85 99.8184 1116.65 97.8882C1120.58 95.639 1127.4 91.04 1133.22 82.849C1139.1 74.5741 1141.18 66.5342 1142.02 62.0695H1123.25C1122.16 65.7453 1119.98 71.3347 1115.48 76.9408C1108.68 85.4003 1100.41 89.0929 1096.36 90.57L1096.28 62.0359L1078.77 62.0863L1078.91 112.357C1074.21 110.729 1069.29 108.077 1065.04 103.746C1059.6 98.2239 1057.35 91.9464 1055.36 86.4074C1052.59 78.7032 1051.28 70.5793 1051.48 62.2709L1033.97 61.8345C1033.72 72.325 1035.37 82.5805 1038.87 92.3324C1041.21 98.8281 1044.41 107.741 1052.54 115.999C1063.56 127.228 1077.21 130.854 1086.71 131.911L1096.46 133.002L1096.39 108.026C1099.65 108.328 1105.59 109.369 1111.59 113.414C1121.42 120.044 1124.38 130.048 1125.1 132.851H1146.04C1144.74 127.916 1141.46 118.366 1133.04 109.537L1133.05 109.554Z" fill="white"/>
<rect x="1200" width="180" height="180" rx="50" fill="url(#paint1_linear_3301_24018)"/>
<path d="M1274.19 90.547C1274.19 81.4996 1281.52 74.1633 1290.58 74.1633C1299.63 74.1633 1306.97 81.4996 1306.97 90.547C1306.97 99.5944 1299.63 106.931 1290.58 106.931C1281.52 106.931 1274.19 99.5944 1274.19 90.547ZM1265.32 90.547C1265.32 104.485 1276.63 115.784 1290.58 115.784C1304.52 115.784 1315.83 104.485 1315.83 90.547C1315.83 76.6089 1304.52 65.3106 1290.58 65.3106C1276.63 65.3106 1265.32 76.6089 1265.32 90.547ZM1310.93 64.3099C1310.93 65.4764 1311.27 66.6168 1311.92 67.5869C1312.57 68.557 1313.49 69.3133 1314.57 69.7601C1315.65 70.2069 1316.83 70.3242 1317.98 70.0971C1319.12 69.87 1320.17 69.3087 1321 68.4842C1321.82 67.6598 1322.39 66.6091 1322.62 65.4652C1322.84 64.3212 1322.73 63.1354 1322.28 62.0575C1321.83 60.9797 1321.08 60.0583 1320.11 59.4099C1319.14 58.7615 1318 58.4151 1316.83 58.4146H1316.83C1315.26 58.4154 1313.76 59.0366 1312.66 60.142C1311.55 61.2474 1310.93 62.7464 1310.93 64.3099ZM1270.71 130.552C1265.91 130.333 1263.31 129.535 1261.58 128.861C1259.28 127.968 1257.64 126.904 1255.92 125.185C1254.2 123.466 1253.13 121.83 1252.24 119.536C1251.57 117.806 1250.77 115.2 1250.55 110.409C1250.31 105.228 1250.26 103.672 1250.26 90.5474C1250.26 77.4228 1250.32 75.8709 1250.55 70.6861C1250.77 65.8944 1251.57 63.2944 1252.24 61.5593C1253.14 59.2647 1254.2 57.6275 1255.92 55.9062C1257.64 54.1848 1259.28 53.1193 1261.58 52.23C1263.31 51.5553 1265.91 50.7571 1270.71 50.5393C1275.89 50.301 1277.45 50.2535 1290.58 50.2535C1303.7 50.2535 1305.26 50.305 1310.45 50.5393C1315.24 50.7575 1317.85 51.5616 1319.58 52.23C1321.88 53.1193 1323.52 54.1872 1325.24 55.9062C1326.96 57.6251 1328.02 59.2647 1328.92 61.5593C1329.59 63.2893 1330.39 65.8944 1330.61 70.6861C1330.85 75.8709 1330.89 77.4228 1330.89 90.5474C1330.89 103.672 1330.85 105.224 1330.61 110.409C1330.39 115.2 1329.59 117.805 1328.92 119.536C1328.02 121.83 1326.96 123.467 1325.24 125.185C1323.52 126.902 1321.88 127.968 1319.58 128.861C1317.85 129.536 1315.24 130.334 1310.45 130.552C1305.27 130.79 1303.71 130.837 1290.58 130.837C1277.44 130.837 1275.89 130.79 1270.71 130.552ZM1270.3 41.6975C1265.07 41.9358 1261.49 42.7654 1258.37 43.9803C1255.13 45.235 1252.39 46.9181 1249.65 49.6492C1246.92 52.3802 1245.24 55.1218 1243.98 58.3553C1242.77 61.4795 1241.94 65.0526 1241.7 70.2847C1241.46 75.5249 1241.4 77.2002 1241.4 90.547C1241.4 103.894 1241.46 105.569 1241.7 110.809C1241.94 116.042 1242.77 119.615 1243.98 122.739C1245.24 125.97 1246.92 128.715 1249.65 131.445C1252.39 134.175 1255.13 135.856 1258.37 137.114C1261.5 138.329 1265.07 139.158 1270.3 139.397C1275.55 139.635 1277.22 139.694 1290.58 139.694C1303.93 139.694 1305.61 139.639 1310.85 139.397C1316.09 139.158 1319.66 138.329 1322.79 137.114C1326.02 135.856 1328.76 134.176 1331.5 131.445C1334.24 128.714 1335.91 125.97 1337.17 122.739C1338.39 119.615 1339.22 116.041 1339.46 110.809C1339.69 105.565 1339.75 103.894 1339.75 90.547C1339.75 77.2002 1339.69 75.5249 1339.46 70.2847C1339.22 65.0523 1338.39 61.4775 1337.17 58.3553C1335.91 55.1237 1334.23 52.3845 1331.5 49.6492C1328.77 46.9138 1326.02 45.235 1322.79 43.9803C1319.66 42.7654 1316.09 41.9319 1310.85 41.6975C1305.61 41.4593 1303.94 41.3999 1290.58 41.3999C1277.23 41.3999 1275.55 41.4553 1270.3 41.6975Z" fill="white"/>
<path d="M1274.19 90.547C1274.19 81.4996 1281.52 74.1633 1290.58 74.1633C1299.63 74.1633 1306.97 81.4996 1306.97 90.547C1306.97 99.5944 1299.63 106.931 1290.58 106.931C1281.52 106.931 1274.19 99.5944 1274.19 90.547ZM1265.32 90.547C1265.32 104.485 1276.63 115.784 1290.58 115.784C1304.52 115.784 1315.83 104.485 1315.83 90.547C1315.83 76.6089 1304.52 65.3106 1290.58 65.3106C1276.63 65.3106 1265.32 76.6089 1265.32 90.547ZM1310.93 64.3099C1310.93 65.4764 1311.27 66.6168 1311.92 67.5869C1312.57 68.557 1313.49 69.3133 1314.57 69.7601C1315.65 70.2069 1316.83 70.3242 1317.98 70.0971C1319.12 69.87 1320.17 69.3087 1321 68.4842C1321.82 67.6598 1322.39 66.6091 1322.62 65.4652C1322.84 64.3212 1322.73 63.1354 1322.28 62.0575C1321.83 60.9797 1321.08 60.0583 1320.11 59.4099C1319.14 58.7615 1318 58.4151 1316.83 58.4146H1316.83C1315.26 58.4154 1313.76 59.0366 1312.66 60.142C1311.55 61.2474 1310.93 62.7464 1310.93 64.3099ZM1270.71 130.552C1265.91 130.333 1263.31 129.535 1261.58 128.861C1259.28 127.968 1257.64 126.904 1255.92 125.185C1254.2 123.466 1253.13 121.83 1252.24 119.536C1251.57 117.806 1250.77 115.2 1250.55 110.409C1250.31 105.228 1250.26 103.672 1250.26 90.5474C1250.26 77.4228 1250.32 75.8709 1250.55 70.6861C1250.77 65.8944 1251.57 63.2944 1252.24 61.5593C1253.14 59.2647 1254.2 57.6275 1255.92 55.9062C1257.64 54.1848 1259.28 53.1193 1261.58 52.23C1263.31 51.5553 1265.91 50.7571 1270.71 50.5393C1275.89 50.301 1277.45 50.2535 1290.58 50.2535C1303.7 50.2535 1305.26 50.305 1310.45 50.5393C1315.24 50.7575 1317.85 51.5616 1319.58 52.23C1321.88 53.1193 1323.52 54.1872 1325.24 55.9062C1326.96 57.6251 1328.02 59.2647 1328.92 61.5593C1329.59 63.2893 1330.39 65.8944 1330.61 70.6861C1330.85 75.8709 1330.89 77.4228 1330.89 90.5474C1330.89 103.672 1330.85 105.224 1330.61 110.409C1330.39 115.2 1329.59 117.805 1328.92 119.536C1328.02 121.83 1326.96 123.467 1325.24 125.185C1323.52 126.902 1321.88 127.968 1319.58 128.861C1317.85 129.536 1315.24 130.334 1310.45 130.552C1305.27 130.79 1303.71 130.837 1290.58 130.837C1277.44 130.837 1275.89 130.79 1270.71 130.552ZM1270.3 41.6975C1265.07 41.9358 1261.49 42.7654 1258.37 43.9803C1255.13 45.235 1252.39 46.9181 1249.65 49.6492C1246.92 52.3802 1245.24 55.1218 1243.98 58.3553C1242.77 61.4795 1241.94 65.0526 1241.7 70.2847C1241.46 75.5249 1241.4 77.2002 1241.4 90.547C1241.4 103.894 1241.46 105.569 1241.7 110.809C1241.94 116.042 1242.77 119.615 1243.98 122.739C1245.24 125.97 1246.92 128.715 1249.65 131.445C1252.39 134.175 1255.13 135.856 1258.37 137.114C1261.5 138.329 1265.07 139.158 1270.3 139.397C1275.55 139.635 1277.22 139.694 1290.58 139.694C1303.93 139.694 1305.61 139.639 1310.85 139.397C1316.09 139.158 1319.66 138.329 1322.79 137.114C1326.02 135.856 1328.76 134.176 1331.5 131.445C1334.24 128.714 1335.91 125.97 1337.17 122.739C1338.39 119.615 1339.22 116.041 1339.46 110.809C1339.69 105.565 1339.75 103.894 1339.75 90.547C1339.75 77.2002 1339.69 75.5249 1339.46 70.2847C1339.22 65.0523 1338.39 61.4775 1337.17 58.3553C1335.91 55.1237 1334.23 52.3845 1331.5 49.6492C1328.77 46.9138 1326.02 45.235 1322.79 43.9803C1319.66 42.7654 1316.09 41.9319 1310.85 41.6975C1305.61 41.4593 1303.94 41.3999 1290.58 41.3999C1277.23 41.3999 1275.55 41.4553 1270.3 41.6975Z" fill="white"/>
<rect x="1400" width="180" height="180" rx="50" fill="#00D159"/>
<path d="M1450.48 96.0802C1450.48 93.0479 1452.93 90.5909 1455.96 90.5909C1458.99 90.5909 1461.44 93.0479 1461.44 96.0802C1461.44 99.1154 1458.99 101.571 1455.96 101.571C1452.93 101.571 1450.48 99.1154 1450.48 96.0802Z" fill="white"/>
<path fill-rule="evenodd" clip-rule="evenodd" d="M1456.01 79.7464C1447 79.7464 1439.7 87.0605 1439.7 96.0802C1439.7 105.105 1447 112.411 1456.01 112.411C1465.02 112.411 1472.32 105.105 1472.32 96.0802C1472.32 87.0605 1465.02 79.7464 1456.01 79.7464ZM1444.7 96.0802C1444.7 102.33 1449.76 107.396 1456.01 107.396C1462.25 107.396 1467.31 102.33 1467.31 96.0802C1467.31 89.828 1462.25 84.7615 1456.01 84.7615C1449.76 84.7615 1444.7 89.828 1444.7 96.0802Z" fill="white"/>
<path d="M1523.55 90.5147C1520.52 90.5147 1518.07 92.9698 1518.07 96.0059C1518.07 99.0411 1520.52 101.496 1523.55 101.496C1526.58 101.496 1529.03 99.0411 1529.03 96.0059C1529.03 92.9698 1526.58 90.5147 1523.55 90.5147Z" fill="white"/>
<path fill-rule="evenodd" clip-rule="evenodd" d="M1507.28 96.0059C1507.28 86.9824 1514.58 79.6722 1523.59 79.6722C1532.6 79.6722 1539.9 86.9824 1539.9 96.0059C1539.9 105.023 1532.6 112.337 1523.59 112.337C1514.58 112.337 1507.28 105.023 1507.28 96.0059ZM1512.29 96.0059C1512.29 102.255 1517.35 107.322 1523.59 107.322C1529.84 107.322 1534.9 102.255 1534.9 96.0059C1534.9 89.7518 1529.84 84.6853 1523.59 84.6853C1517.35 84.6853 1512.29 89.7518 1512.29 96.0059Z" fill="white"/>
<path fill-rule="evenodd" clip-rule="evenodd" d="M1535.04 62.9879H1557.5C1554.01 67.0792 1551.43 72.6152 1550.79 76.4132C1554.82 81.9597 1557.21 88.7795 1557.21 96.1621C1557.21 114.747 1542.16 129.814 1523.61 129.814C1513.09 129.814 1503.7 124.971 1497.54 117.396C1494.83 120.722 1490 127.939 1490 127.939C1489.16 126.22 1485 120.305 1482.48 117.366C1476.32 124.956 1466.93 129.814 1456.4 129.814C1437.84 129.814 1422.79 114.747 1422.79 96.1621C1422.79 88.7757 1425.18 81.9511 1429.21 76.4027C1428.57 72.6038 1425.99 67.0744 1422.5 62.9879H1443.89C1455.35 55.2662 1472.06 50.4492 1490.01 50.4492C1507.95 50.4492 1523.59 55.27 1535.04 62.9879ZM1429.34 96.1621C1429.34 111.125 1441.45 123.252 1456.4 123.252C1471.34 123.252 1483.45 111.125 1483.45 96.1621C1483.45 81.2045 1471.34 69.0753 1456.4 69.0753C1441.45 69.0753 1429.34 81.2045 1429.34 96.1621ZM1490.01 56.0643C1478 56.0643 1466.06 58.3261 1456.45 62.5193C1474.98 62.545 1490 77.5951 1490 96.1545C1490 77.9274 1504.49 63.0974 1522.56 62.5431C1512.93 58.3337 1502.03 56.0643 1490.01 56.0643ZM1496.55 96.1621C1496.55 111.125 1508.66 123.252 1523.61 123.252C1538.54 123.252 1550.66 111.125 1550.66 96.1621C1550.66 81.2045 1538.54 69.0753 1523.61 69.0753C1508.66 69.0753 1496.55 81.2045 1496.55 96.1621Z" fill="white"/>
<rect x="1600" width="180" height="180" rx="50" fill="#34AADF"/>
<path fill-rule="evenodd" clip-rule="evenodd" d="M1739.73 90.5626C1739.73 117.714 1717.71 139.725 1690.56 139.725C1663.41 139.725 1641.4 117.714 1641.4 90.5626C1641.4 63.411 1663.41 41.4001 1690.56 41.4001C1717.71 41.4001 1739.73 63.411 1739.73 90.5626ZM1695.27 75.4773C1686.83 79.1255 1662.48 89.4859 1662.48 89.4859C1656.7 91.8207 1660.08 94.0095 1660.08 94.0095C1660.08 94.0095 1665.01 95.7607 1669.23 97.0738C1673.46 98.3871 1675.71 96.928 1675.71 96.928C1675.71 96.928 1685.56 90.2155 1695.56 83.0652C1702.59 78.104 1700.9 82.1898 1699.22 83.9409C1695.56 87.7349 1689.5 93.7177 1684.43 98.5331C1682.18 100.576 1683.31 102.327 1684.29 103.203C1687.16 105.716 1693.91 110.288 1696.97 112.364C1697.82 112.939 1698.39 113.322 1698.51 113.417C1699.22 114.001 1703.16 116.627 1705.55 116.044C1707.94 115.46 1708.22 112.104 1708.22 112.104C1708.22 112.104 1710.05 100.138 1711.74 89.194C1712.06 87.0452 1712.37 84.9415 1712.66 82.9799C1713.42 77.8812 1714.03 73.7424 1714.14 72.267C1714.56 67.3057 1709.49 69.3485 1709.49 69.3485C1709.49 69.3485 1698.51 74.0182 1695.27 75.4773Z" fill="white"/>
<rect x="1800" width="180" height="180" rx="50" fill="#9146FF"/>
<path d="M1914.51 95.6861L1901.54 107.714H1888.56L1877.21 118.239V107.714H1862.61V62.6087H1914.51V95.6861Z" fill="#9146FF"/>
<path d="M1869.46 50.8696L1865.54 54.7826L1858.7 98.8044L1879.24 109.565L1882.17 113.478L1901.74 106.63L1923.26 90L1924.24 74.3479L1923.26 51.8478L1920.33 50.8696H1869.46Z" fill="white"/>
<path d="M1867.09 46.9565L1850.87 61.9917V116.118H1870.33V131.154L1886.55 116.118H1899.53L1928.73 89.0551V46.9565H1867.09ZM1922.24 86.048L1909.26 98.0762H1896.29L1884.93 108.601V98.0762H1870.33V52.9706H1922.24V86.048Z" fill="black"/>
<path d="M1912.51 63.4953H1906.02V81.5375H1912.51V63.4953Z" fill="black"/>
<path d="M1894.67 63.4953H1888.18V81.5375H1894.67V63.4953Z" fill="black"/>
<path d="M2129.65 0L2050.35 0C2022.54 0 2000 22.5444 2000 50.3544V129.646C2000 157.456 2022.54 180 2050.35 180H2129.65C2157.46 180 2180 157.456 2180 129.646V50.3544C2180 22.5444 2157.46 0 2129.65 0Z" fill="#FFFA00"/>
<path d="M2046.81 114.17V112.827C2047.37 112.189 2047.95 111.636 2048.84 111.468C2055.93 110.058 2060.68 105.543 2064.25 99.6177C2067.26 94.6326 2066.77 93.4912 2061.23 91.5274C2060.91 91.4099 2060.59 91.3259 2060.27 91.1917C2059.08 90.7049 2057.89 90.1678 2056.9 89.3118C2054.42 87.1633 2055.89 84.0414 2058.81 83.3364C2060.95 82.8161 2062.81 84.1924 2064.89 84.4609C2066.28 84.6288 2066.84 84.1588 2066.67 82.6818C2066.23 78.8716 2066.25 75.0448 2066.42 71.2346C2066.75 63.95 2070.35 58.3942 2076.41 54.8023C2085.27 49.5486 2094.53 49.4815 2103.46 54.7184C2109.03 57.9914 2112.63 62.9261 2113.42 69.5728C2113.92 73.8865 2113.72 78.2171 2113.38 82.5308C2113.23 84.4107 2113.62 84.7463 2115.48 84.3099C2117.78 83.7728 2119.71 82.5811 2122.11 83.6385C2123.39 84.2092 2124.51 85.4177 2124.48 86.8109C2124.46 87.7676 2123.89 88.6572 2123.17 89.2783C2122.06 90.235 2120.62 90.7721 2119.27 91.326C2118.23 91.7456 2117.16 92.0812 2116.13 92.5512C2114.04 93.5247 2113.43 94.834 2114.42 96.8985C2117.81 104.066 2122.8 109.504 2130.85 111.401C2131.85 111.636 2132.63 112.038 2133.22 112.827V114.17C2132.47 115.748 2131.09 116.604 2129.55 117.191C2127.97 117.796 2126.39 118.45 2124.69 118.568C2122.36 118.719 2121.14 119.743 2120.77 122.16C2120.43 124.476 2119.73 124.795 2117.38 124.61C2116.82 124.56 2116.27 124.459 2115.72 124.358C2111.1 123.536 2106.77 124.006 2102.96 127.078C2102.22 127.682 2101.4 128.169 2100.59 128.689C2094.11 132.885 2087.5 133.372 2080.74 129.427C2078.89 128.353 2077.14 127.111 2075.36 125.953C2073.89 124.979 2072.29 124.442 2070.51 124.174C2067.71 123.754 2065.03 124.375 2062.31 124.677C2060.91 124.828 2059.55 124.426 2059.47 122.982C2059.28 119.491 2057.14 118.635 2054.2 118.316C2052.82 118.165 2051.48 117.611 2050.19 117.074C2048.78 116.486 2047.5 115.647 2046.83 114.17H2046.81Z" fill="white"/>
<path d="M2090.02 134.06C2086.58 134.06 2083.15 133.07 2079.76 131.089C2078.42 130.3 2077.13 129.444 2075.88 128.605C2075.36 128.252 2074.83 127.9 2074.31 127.547C2073.13 126.775 2071.82 126.305 2070.21 126.054C2068.35 125.768 2066.49 126.037 2064.49 126.305C2063.82 126.406 2063.16 126.49 2062.49 126.557C2060.98 126.725 2059.69 126.406 2058.78 125.634C2058.03 124.996 2057.61 124.123 2057.56 123.083C2057.46 121.236 2056.9 120.515 2053.98 120.196C2052.32 120.011 2050.72 119.356 2049.45 118.819C2047.28 117.913 2045.86 116.637 2045.08 114.942L2044.92 114.573V112.105L2045.37 111.568C2046.08 110.746 2047 109.873 2048.48 109.588C2054.32 108.43 2058.8 104.938 2062.63 98.6105C2064.22 95.9752 2064.24 95.2702 2064.17 95.0856C2064.09 94.8674 2063.51 94.3303 2060.59 93.2896L2060.28 93.1889C2060.02 93.105 2059.79 93.0211 2059.55 92.9372C2058.24 92.4001 2056.87 91.779 2055.66 90.7384C2054.08 89.362 2053.43 87.5157 2053.88 85.6693C2054.38 83.6384 2056.1 82.0438 2058.38 81.49C2060.24 81.0368 2061.84 81.5738 2063.25 82.0606C2063.77 82.2452 2064.27 82.4131 2064.74 82.5138C2064.39 79.224 2064.32 75.5984 2064.52 71.1505C2064.89 63.4127 2068.67 57.2024 2075.45 53.174C2084.93 47.5511 2094.95 47.5343 2104.42 53.09C2110.71 56.7827 2114.47 62.4056 2115.3 69.3545C2115.82 73.836 2115.61 78.2673 2115.3 82.4131C2115.72 82.2956 2116.12 82.1781 2116.52 82.0438C2118.33 81.4731 2120.4 80.8186 2122.87 81.9096C2125.05 82.8663 2126.41 84.8134 2126.36 86.8611C2126.32 88.2542 2125.62 89.6641 2124.39 90.7216C2123.13 91.8126 2121.62 92.4336 2120.28 92.9707L2119.96 93.105C2119.54 93.2728 2119.11 93.4407 2118.67 93.5917C2118.05 93.8267 2117.46 94.0282 2116.91 94.2799C2116.22 94.5989 2115.9 94.9009 2115.85 95.052C2115.8 95.1863 2115.85 95.5388 2116.1 96.0927C2119.69 103.696 2124.51 107.976 2131.24 109.554C2132.75 109.907 2133.88 110.612 2134.7 111.686L2135.08 112.189V114.606L2134.9 114.992C2134.03 116.788 2132.48 118.097 2130.18 118.97L2129.71 119.155C2128.19 119.742 2126.59 120.347 2124.78 120.464C2123.27 120.565 2122.83 120.968 2122.61 122.445C2122.08 126.137 2120.06 126.742 2117.19 126.507C2116.59 126.456 2116.02 126.356 2115.48 126.255H2115.35C2110.68 125.399 2107.1 126.137 2104.12 128.554C2103.43 129.108 2102.71 129.562 2102.02 130.015L2101.58 130.3C2097.72 132.801 2093.84 134.06 2089.98 134.06H2090.02ZM2068.5 122.143C2069.24 122.143 2069.99 122.193 2070.78 122.311C2072.93 122.629 2074.76 123.318 2076.39 124.375C2076.93 124.728 2077.46 125.08 2078 125.449C2079.26 126.289 2080.43 127.077 2081.68 127.799C2087.63 131.274 2093.48 131.039 2099.53 127.111L2099.99 126.826C2100.63 126.423 2101.21 126.037 2101.75 125.617C2105.61 122.512 2110.28 121.488 2116.03 122.512H2116.17C2116.64 122.613 2117.09 122.697 2117.51 122.73C2118.18 122.781 2118.54 122.78 2118.69 122.747C2118.74 122.613 2118.8 122.361 2118.87 121.891C2119.34 118.635 2121.25 116.889 2124.54 116.671C2125.79 116.587 2127.03 116.117 2128.37 115.597L2128.84 115.412C2130.05 114.959 2130.82 114.405 2131.29 113.666V113.582C2131.09 113.448 2130.8 113.331 2130.39 113.23C2122.55 111.384 2116.74 106.315 2112.68 97.704C2111.99 96.2605 2111.85 94.9178 2112.27 93.7596C2112.71 92.5343 2113.7 91.5776 2115.3 90.8223C2115.98 90.5034 2116.69 90.2348 2117.36 89.9998C2117.75 89.8656 2118.15 89.7145 2118.52 89.5634L2118.84 89.4291C2120 88.9591 2121.09 88.5227 2121.86 87.8513C2122.26 87.5157 2122.5 87.0961 2122.51 86.7604C2122.51 86.2904 2121.99 85.6861 2121.29 85.3672C2120.18 84.8805 2119.27 85.1322 2117.61 85.6525C2117.06 85.8204 2116.49 86.005 2115.85 86.1561C2115.04 86.3407 2113.52 86.6932 2112.39 85.7196C2111.25 84.7461 2111.37 83.2019 2111.44 82.3795C2111.75 78.3511 2111.97 74.0375 2111.49 69.7909C2110.8 63.9834 2107.76 59.4683 2102.46 56.3631C2094.11 51.4787 2085.67 51.4955 2077.33 56.447C2071.62 59.8375 2068.57 64.8395 2068.26 71.3352C2068.06 75.7496 2068.13 79.2911 2068.5 82.4802C2068.55 82.967 2068.73 84.4776 2067.66 85.535C2066.59 86.5925 2065.11 86.4079 2064.61 86.3408C2063.63 86.2233 2062.74 85.9211 2061.95 85.6525C2060.75 85.2497 2059.97 84.998 2059.2 85.1826C2058.21 85.4176 2057.64 86.0554 2057.51 86.5757C2057.4 87.0121 2057.59 87.4485 2058.08 87.8681C2058.85 88.5395 2059.87 88.9927 2060.93 89.4291C2061.08 89.4963 2061.23 89.5466 2061.4 89.5969C2061.53 89.6473 2061.67 89.6809 2061.8 89.7312C2064.45 90.6712 2066.92 91.6951 2067.68 93.8267C2068.37 95.7402 2067.51 97.7544 2065.81 100.591C2061.47 107.809 2056.01 111.971 2049.15 113.331C2049 113.364 2048.84 113.431 2048.64 113.599V113.717C2049.05 114.371 2049.73 114.875 2050.84 115.345C2051.95 115.815 2053.21 116.335 2054.33 116.453C2056.15 116.654 2060.91 117.174 2061.28 122.797C2061.42 122.831 2061.67 122.848 2062.02 122.814C2062.66 122.747 2063.28 122.663 2063.92 122.562C2065.39 122.361 2066.89 122.143 2068.45 122.143H2068.5Z" fill="#231F20"/>
<path d="M2329.65 0L2250.35 0C2222.54 0 2200 22.5444 2200 50.3543V129.646C2200 157.456 2222.54 180 2250.35 180H2329.65C2357.46 180 2380 157.456 2380 129.646V50.3543C2380 22.5444 2357.46 0 2329.65 0Z" fill="#1677F0"/>
<path d="M2306.85 96.1877C2310.81 96.1877 2314.19 93.2901 2314.79 89.3664L2315.14 87.111C2315.9 82.1389 2312.05 77.6573 2307.02 77.6573V77.6573C2302.48 77.6573 2298.81 73.981 2298.81 69.4461V65.6394C2298.81 60.5704 2301.29 55.6357 2309.25 55.6357V55.6357C2313.71 55.6357 2317.32 52.0211 2317.32 47.5623V47.0748C2317.32 42.9055 2314.32 39.3362 2310.16 38.9572C2307.95 38.7551 2305.44 38.5991 2302.97 38.5991C2288.33 38.5991 2278.77 47.4783 2278.77 63.5413V69.5251C2278.77 74.0164 2275.13 77.6573 2270.63 77.6573V77.6573C2266.14 77.6573 2262.5 81.2982 2262.5 85.7895V88.0555C2262.5 92.5468 2266.14 96.1877 2270.63 96.1877V96.1877C2275.13 96.1877 2278.77 99.8286 2278.77 104.32V130.909C2278.77 136.705 2282.99 141.742 2288.79 141.742V141.742V141.742C2294.57 141.742 2298.81 136.697 2298.81 130.909V104.225C2298.81 99.7862 2302.41 96.1877 2306.85 96.1877V96.1877Z" fill="white"/>
<defs>
<linearGradient id="paint0_linear_3301_24018" x1="892.288" y1="178.474" x2="888.474" y2="-0.761253" gradientUnits="userSpaceOnUse">
<stop stop-color="#FF433A"/>
<stop offset="1" stop-color="#FF9436"/>
</linearGradient>
<linearGradient id="paint1_linear_3301_24018" x1="1376.54" y1="180" x2="1196.54" y2="-4.84509e-06" gradientUnits="userSpaceOnUse">
<stop stop-color="#FBE18A"/>
<stop offset="0.21" stop-color="#FCBB45"/>
<stop offset="0.38" stop-color="#F75274"/>
<stop offset="0.52" stop-color="#D53692"/>
<stop offset="0.74" stop-color="#8F39CE"/>
<stop offset="1" stop-color="#5B4FE9"/>
</linearGradient>
</defs>
</svg>
