<svg data-name="Layer 1" xmlns="http://www.w3.org/2000/svg" viewBox="0 0 55.42 59.793"><path d="M3.959 48.243A3.958 3.958 0 010 44.285v-28.8a3.959 3.959 0 117.917 0v28.8a3.958 3.958 0 01-3.958 3.958z" fill-rule="evenodd" fill="#9ddcf9"/><path d="M51.461 48.243a3.958 3.958 0 01-3.961-3.958V15.508a3.959 3.959 0 117.917 0v28.777a3.959 3.959 0 01-3.956 3.958z" fill="#00acdb" fill-rule="evenodd"/><path d="M27.71 59.793a3.96 3.96 0 01-3.959-3.959V3.959a3.959 3.959 0 117.917 0v51.875a3.959 3.959 0 01-3.958 3.959z" fill="#0256a7" fill-rule="evenodd"/></svg>