<svg width="264" height="264" viewBox="0 0 264 264" fill="none" xmlns="http://www.w3.org/2000/svg">
<g filter="url(#filter0_d_1134_392)">
<g clip-path="url(#clip0_1134_392)">
<rect x="32" y="20" width="200" height="200" rx="24" fill="#EBF1F7"/>
<path d="M109.744 163.689C109.177 163.51 108.762 162.984 108.752 162.357C108.527 147.71 110.285 128.575 119.937 120.596C124.143 117.119 129.456 116.014 135.728 117.315C143.34 118.894 149.019 122.771 151.717 128.233C154.58 134.029 154.031 140.315 153.501 146.393L153.402 147.525C152.711 155.64 151.757 162.961 150.481 169.906C150.34 170.677 149.6 171.187 148.83 171.046C148.06 170.904 147.55 170.165 147.691 169.395C148.948 162.539 149.892 155.307 150.576 147.285L150.674 146.146C151.171 140.457 151.684 134.574 149.173 129.49C146.221 123.514 139.919 121.082 135.152 120.094C129.689 118.961 125.304 119.841 121.745 122.783C114.792 128.531 111.28 142.201 111.589 162.315C111.601 163.098 110.976 163.742 110.192 163.755C110.036 163.756 109.885 163.733 109.744 163.689Z" fill="white"/>
<path d="M175.432 184.591C175.747 183.838 176.025 183.224 176.123 182.933C176.298 182.415 176.474 181.897 176.682 181.391C178.947 175.896 182.406 171.002 186.211 166.474C187.02 165.511 188.526 166.099 189.002 167.569C189.321 168.556 189.153 169.549 188.697 170.433C185.227 177.158 181.193 183.514 176.233 189.251C175.98 189.544 175.693 190.203 175.245 190.189C172.89 190.115 174.999 185.625 175.432 184.591Z" fill="url(#paint0_linear_1134_392)"/>
<path d="M175.432 184.591C175.747 183.838 176.025 183.224 176.123 182.933C176.298 182.415 176.474 181.897 176.682 181.391C178.947 175.896 182.406 171.002 186.211 166.474C187.02 165.511 188.526 166.099 189.002 167.569C189.321 168.556 189.153 169.549 188.697 170.433C185.227 177.158 181.193 183.514 176.233 189.251C175.98 189.544 175.693 190.203 175.245 190.189C172.89 190.115 174.999 185.625 175.432 184.591Z" fill="url(#paint1_linear_1134_392)"/>
<path d="M147.417 154.141C148.081 152.682 149.229 151.421 149.833 149.967C150.35 148.725 150.654 147.514 151.397 146.341C151.695 145.87 152.034 145.414 152.483 145.084C153.116 144.619 153.909 144.443 154.647 144.173C155.457 143.877 156.97 143.084 156.054 142.164C154.799 140.905 153.661 139.55 152.717 138.041C151.636 136.311 150.94 134.44 150.861 132.386C150.842 131.887 150.952 131.359 151.114 130.882C151.86 128.697 152.8 128.466 154.399 130.067C158.154 133.825 161.724 137.781 166.107 140.856C167.331 141.715 168.525 142.623 169.797 143.406C172.188 144.878 173.101 147.342 174.121 149.72C174.835 151.386 175.292 153.15 175.623 154.933C175.785 155.805 176.2 156.451 176.878 156.987C181.574 160.694 186.266 164.406 190.954 168.123C191.353 168.439 191.751 168.768 192.09 169.144C192.395 169.481 192.472 169.841 192.151 170.304C189.813 173.667 187.876 177.27 185.903 180.851C185.106 182.297 184.307 183.756 183.128 184.94C181.761 186.312 180.904 186.205 179.848 184.594C177.518 181.039 175.174 177.494 172.874 173.92C172.334 173.081 171.69 172.707 170.675 172.645C167.216 172.435 163.769 171.998 160.435 171.049C156.646 169.97 152.978 167.952 149.764 165.692C148.795 165.011 148.66 164.278 148.622 163.138C148.565 161.396 148.481 160.146 147.885 158.493C147.425 157.209 146.803 155.49 147.417 154.141Z" fill="url(#paint2_linear_1134_392)"/>
<path d="M148.669 171.005C147.996 170.793 147.572 170.108 147.703 169.396C148.96 162.541 149.904 155.308 150.587 147.286L150.686 146.148C151.183 140.458 151.696 134.575 149.185 129.491C146.233 123.516 139.931 121.084 135.164 120.095C134.397 119.93 133.904 119.186 134.063 118.418C134.222 117.651 134.973 117.158 135.74 117.317C143.353 118.895 149.03 122.773 151.729 128.235C154.592 134.031 154.043 140.317 153.512 146.395L153.414 147.527C152.723 155.642 151.768 162.963 150.493 169.908C150.351 170.68 149.612 171.189 148.842 171.048C148.783 171.037 148.725 171.023 148.669 171.005Z" fill="white"/>
<path d="M140.295 142.848C141.009 141.682 141.931 140.727 143.241 140.254C146.81 138.964 150.467 138.093 154.293 138.214C155.18 138.242 156.093 138.325 156.727 139.165C157.126 139.694 157.236 140.149 156.965 140.782C156.302 142.326 155.106 143.343 153.651 143.989C150.674 145.311 147.874 147.02 144.774 148.068C143.883 148.369 142.969 148.634 142.046 148.806C140.864 149.025 140.153 148.572 139.838 147.399C139.418 145.841 139.351 144.289 140.295 142.848Z" fill="url(#paint3_linear_1134_392)"/>
<path d="M139.728 148.251C140.071 147.564 140.654 147.199 141.37 147.006C144.796 146.085 148.294 145.522 151.78 144.897C152.676 144.737 153.593 144.756 154.477 145.003C155.659 145.334 156.514 146.053 156.776 147.294C157.027 148.489 156.272 149.235 155.418 149.837C154.022 150.822 152.441 151.437 150.808 151.913C148.203 152.672 145.566 153.334 142.993 154.189C140.414 155.047 139.015 153.197 139.029 150.607C139.033 149.781 139.326 148.985 139.728 148.251Z" fill="url(#paint4_linear_1134_392)"/>
<path d="M140.456 155.429C140.879 154.653 141.494 154.132 142.307 153.84C145.92 152.543 149.664 151.797 153.441 151.207C154.213 151.087 155.012 151.038 155.693 151.61C157.007 152.714 157.083 154.067 155.831 155.38C153.9 157.404 151.372 158.449 148.852 159.46C147.137 160.147 145.368 160.705 143.601 161.254C142.233 161.68 141.376 161.347 140.579 160.14C139.564 158.603 139.749 157.014 140.456 155.429Z" fill="url(#paint5_linear_1134_392)"/>
<path d="M145.163 164.249C144.482 163.599 143.787 162.926 143.447 162.058C142.876 160.615 144.231 160.007 145.412 159.598C148.459 158.544 151.546 157.621 154.654 156.766C155.186 156.62 155.719 156.492 156.28 156.564C156.96 156.651 157.47 156.977 157.722 157.622C157.973 158.265 157.865 158.882 157.38 159.369C155.915 160.837 154.136 161.955 152.341 162.973C150.81 163.84 149.022 165.156 147.289 165.508C146.37 165.695 145.759 164.818 145.163 164.249Z" fill="url(#paint6_linear_1134_392)"/>
<path d="M258.791 202.667C258.336 202.517 257.909 202.368 257.516 202.218C239.399 195.304 222.114 186.109 205.312 176.477C199.993 173.428 194.666 170.381 189.658 166.824C188.864 166.261 188.338 166.474 188 167.301C187.732 167.956 187.579 168.66 187.289 169.303C184.176 176.217 180.381 182.717 175.481 188.533C175.274 188.779 174.407 189.488 174.492 189.825C174.525 189.956 174.627 190.057 174.723 190.153C174.979 190.41 175.208 190.658 175.473 190.921C180.786 196.181 186.17 201.368 191.421 206.689C208.97 224.475 227.344 239.724 247.666 254.167C254.983 259.367 256.018 255.075 259.356 249.764C263.839 242.633 269.847 236.669 274.024 229.199C276.231 225.252 280.299 218.221 278.79 213.454C276.717 206.906 265.072 204.73 258.791 202.667Z" fill="url(#paint7_linear_1134_392)"/>
<path d="M258.791 202.667C258.336 202.517 257.909 202.368 257.516 202.218C239.399 195.304 222.114 186.109 205.312 176.477C199.993 173.428 194.666 170.381 189.658 166.824C188.864 166.261 188.338 166.474 188 167.301C187.732 167.956 187.579 168.66 187.289 169.303C184.176 176.217 180.381 182.717 175.481 188.533C175.274 188.779 174.407 189.488 174.492 189.825C174.525 189.956 174.627 190.057 174.723 190.153C174.979 190.41 175.208 190.658 175.473 190.921C180.786 196.181 186.17 201.368 191.421 206.689C208.97 224.475 227.344 239.724 247.666 254.167C254.983 259.367 256.018 255.075 259.356 249.764C263.839 242.633 269.847 236.669 274.024 229.199C276.231 225.252 280.299 218.221 278.79 213.454C276.717 206.906 265.072 204.73 258.791 202.667Z" fill="url(#paint8_linear_1134_392)"/>
<path d="M159.496 144.668C159.478 144.662 159.459 144.653 159.441 144.642L156.165 142.578C156.055 142.509 156.021 142.363 156.091 142.253C156.161 142.143 156.305 142.108 156.417 142.179L159.694 144.243C159.804 144.312 159.837 144.459 159.768 144.568C159.709 144.661 159.596 144.699 159.496 144.668Z" fill="#F4A076"/>
<path d="M175.028 161.701C175.004 161.693 174.981 161.682 174.96 161.667C174.855 161.59 174.831 161.442 174.908 161.336C175.976 159.862 175.81 157.81 175.549 155.835C175.532 155.705 175.623 155.587 175.753 155.569C175.88 155.552 176.001 155.643 176.018 155.773C176.292 157.843 176.461 159.999 175.291 161.614C175.229 161.699 175.122 161.73 175.028 161.701Z" fill="#F4A076"/>
<path d="M88.1769 162.32L63.8979 243.012L135.495 258.91L149.651 170.545L88.1769 162.32Z" fill="url(#paint9_linear_1134_392)"/>
<path d="M88.1769 162.32L63.8979 243.012L135.495 258.91L149.651 170.545L88.1769 162.32Z" fill="url(#paint10_linear_1134_392)"/>
<path d="M99.6581 158.176L88.1773 162.32L149.652 170.545L159.688 166.527L99.6581 158.176Z" fill="#545454"/>
<path d="M159.69 166.527L152.608 248.863L145.036 247.539L135.497 258.91L149.653 170.545L159.69 166.527Z" fill="#D32424"/>
<path d="M159.69 166.527L152.608 248.863L145.036 247.539L135.497 258.91L149.653 170.545L159.69 166.527Z" fill="url(#paint11_linear_1134_392)"/>
<path d="M138.232 173.333C139.259 173.626 139.867 174.893 139.522 176.018C139.176 177.143 137.686 177.941 136.579 177.593C135.55 177.27 134.959 175.923 135.283 174.636C135.527 173.666 137.046 172.995 138.232 173.333Z" fill="url(#paint12_linear_1134_392)"/>
<path d="M103.15 167.046C104.177 167.339 104.785 168.606 104.44 169.731C104.094 170.857 102.604 171.654 101.497 171.306C100.468 170.983 99.8773 169.637 100.201 168.35C100.445 167.38 101.964 166.708 103.15 167.046Z" fill="url(#paint13_linear_1134_392)"/>
<path d="M201.754 72.2136L209.03 76.5713L198.704 102.983L201.754 72.2136Z" fill="#64BCD0"/>
<path d="M198.489 113.535L177.809 116.188L171.118 65.1047L202.799 65.2904L198.489 113.535Z" fill="#B7DCE2"/>
<path d="M111.985 116.882C112.086 117.261 112.736 117.191 113.16 117.244C113.78 117.322 114.399 117.398 115.019 117.465C118.811 117.876 122.6 118.28 126.314 119.211C127.712 119.561 129.023 120.093 130.152 120.962C131.317 121.86 132.219 123.172 132.288 124.677C132.325 125.479 132.342 125.93 132.511 126.712C132.688 127.534 132.526 128.418 132.168 129.17C131.65 130.258 130.773 131.126 129.913 131.969C127.698 134.142 125.484 136.315 123.269 138.488C120.73 140.98 117.893 143.615 114.35 143.938C113.294 144.035 112.232 143.915 111.178 143.796C106.788 143.298 102.393 142.798 98.0515 141.966C94.4073 141.267 90.4701 139.762 86.7765 140.967C82.3602 142.407 77.9363 143.824 73.5159 145.25C73.1416 145.37 72.7726 145.511 72.3924 145.608C70.4568 146.098 69.2653 145.176 69.3612 143.215C69.5537 139.275 70.2888 135.409 71.0066 131.542C71.6962 127.825 72.7283 124.192 73.618 120.526C74.0141 118.893 74.7301 118.664 75.9447 118.69C80.3928 118.786 83.9636 116.76 87.6969 114.574C94.2789 110.72 100.905 106.765 108.212 104.439C110.677 103.654 112.525 104.149 114.979 104.683C120.342 105.851 125.587 107.802 130.79 109.525C131.106 109.63 131.434 109.741 131.674 109.973C132.607 110.87 131.489 112.425 130.821 113.062C128.305 115.469 125.272 116.777 121.711 116.474C119.204 116.261 116.706 115.937 114.245 115.41C113.456 115.241 112.283 115.714 112.017 116.531C111.968 116.678 111.961 116.792 111.985 116.882Z" fill="url(#paint14_linear_1134_392)"/>
<path d="M102.363 169.115C101.691 168.903 101.266 168.22 101.395 167.51L105.35 145.664C107.178 135.563 110.567 124.585 121.838 119.752C130.76 115.927 140.505 118.679 145.01 126.299C148.262 131.799 147.253 137.694 146.276 143.395L146.244 143.585C145.421 148.403 144.098 153.168 142.82 157.776C141.353 163.062 139.837 168.527 139.113 173.983C139.01 174.76 138.296 175.306 137.52 175.203C136.742 175.101 136.197 174.387 136.3 173.61C137.051 167.958 138.594 162.396 140.086 157.017C141.346 152.477 142.648 147.783 143.447 143.107L143.48 142.915C144.411 137.48 145.29 132.346 142.568 127.743C138.297 120.519 129.47 119.567 122.957 122.36C112.948 126.652 109.922 136.339 108.143 146.169L104.188 168.014C104.048 168.786 103.31 169.298 102.539 169.158C102.478 169.147 102.42 169.133 102.363 169.115Z" fill="white"/>
<path d="M132.034 135.009C131.184 137.642 127.677 139.11 125.767 137.425C123.038 135.017 120.592 132.044 119.396 128.521C118.723 126.536 117.682 120.859 121.603 122.127C125.91 123.52 128.491 127.5 131.23 130.815C132.26 132.061 132.55 133.462 132.034 135.009Z" fill="url(#paint15_linear_1134_392)"/>
<path d="M136.865 127.895C136.538 128.771 135.553 129.881 134.223 130.64C131.959 131.934 130.314 129.999 129.022 128.374C127.629 126.622 126.399 124.744 125.35 122.768C124.492 121.15 123.471 118.938 125.051 117.41C125.864 116.624 126.818 116.521 127.854 116.925C130.918 118.119 134.193 120.671 136.254 123.218C137.232 124.426 137.592 125.783 136.865 127.895Z" fill="url(#paint16_linear_1134_392)"/>
<path d="M119.143 141.466C120.326 144.387 116.507 144.905 114.482 144.833C112.608 144.765 111.484 143.229 110.812 141.645C110.206 140.217 109.389 138.099 109.374 136.548C109.361 135.188 109.643 133.072 111.306 133.171C112.95 133.268 114.19 134.467 115.102 135.713C116.185 137.191 117.275 138.663 118.364 140.137C118.653 140.529 118.948 140.985 119.143 141.466Z" fill="url(#paint17_linear_1134_392)"/>
<path d="M72.6427 116.956C73.0242 115.667 73.6312 115.45 74.7423 115.637C76.2443 115.891 77.7814 115.939 79.3038 116.072C80.3221 116.161 81.3424 116.227 82.3587 116.336C84.2963 116.543 84.5126 116.793 84.2944 118.711C83.8403 122.702 83.6731 126.706 83.6654 130.718C83.6579 134.538 84.003 138.338 84.3827 142.135C84.6352 144.657 84.57 144.733 82.1472 145.269C79.2286 145.915 76.2697 146.381 73.3915 147.204C72.4506 147.474 72.4129 146.825 72.3491 146.233C72.0991 143.922 72.0726 141.598 72.1097 139.279C72.2221 132.281 72.3885 125.283 72.5408 118.285C72.5517 117.776 72.6176 117.268 72.6427 116.956Z" fill="#B7DCE2"/>
<path d="M213.409 119.978C211.489 124.754 209.359 129.433 206.678 133.842C205.046 136.527 203.566 139.308 201.747 141.879C201.203 142.647 200.713 143.474 199.872 143.968C199.037 144.459 198.526 144.241 198.322 143.298C198.135 142.438 198.223 141.566 198.415 140.721C200.23 132.758 202.474 124.969 207.633 118.385C208.484 117.298 209.403 116.277 210.489 115.416C211.06 114.963 211.699 114.674 212.434 114.656C213.771 114.623 214.294 115.205 214.203 116.529C214.119 117.723 213.731 118.836 213.409 119.978Z" fill="url(#paint18_linear_1134_392)"/>
<path d="M117.007 128.063C120.614 129.296 123.088 133.461 124.805 136.646C125.547 138.021 126.058 139.823 125.166 141.253C123.834 143.39 120.277 143.727 118.678 141.712C115.995 138.333 113.729 134.689 113.834 130.107C113.876 128.266 115.103 127.412 117.007 128.063Z" fill="url(#paint19_linear_1134_392)"/>
<path d="M220.645 124.519C218.637 128.729 216.137 133.031 212.261 136.361C210.799 137.616 209.234 138.75 207.726 139.952C207.14 140.419 206.624 140.41 206.046 139.91C201.31 135.818 196.739 131.555 192.381 127.058C190.954 125.585 189.661 124.009 188.315 122.471C185.957 119.778 185.762 116.667 186.337 113.363C186.615 111.769 186.999 110.194 187.618 108.705C188.133 107.467 187.782 106.693 186.764 105.906C184.367 104.054 181.972 102.18 179.951 99.9041C178.259 97.9996 176.445 96.1464 175.967 93.4838C175.791 92.5109 175.583 91.5178 176.537 90.775C176.892 90.4982 176.651 90.2233 176.539 89.9371C176.195 89.0587 175.839 88.1832 175.534 87.2907C175.122 86.0843 175.528 84.6715 176.562 83.9268C177.045 83.5792 177.279 83.1832 177.457 82.6313C178.091 80.6695 179.282 80.0429 181.197 80.6397C181.607 80.7675 181.737 80.619 181.947 80.3403C182.463 79.6536 183.173 79.5728 183.963 79.7683C185.009 80.0271 185.955 80.5073 186.853 81.0766C191.441 83.9852 195.851 87.1515 200.318 90.2375C201.832 91.2838 203.034 92.5234 204.204 93.8605C205.831 95.7206 206.444 97.9419 206.559 100.38C206.718 103.721 207.012 107.054 207.495 110.368C207.6 111.089 207.94 111.508 208.584 111.9C212.411 114.234 216.097 116.798 220.103 118.831C220.675 119.121 220.948 119.538 221.066 120.193C221.309 121.557 221.087 122.852 220.645 124.519Z" fill="url(#paint20_linear_1134_392)"/>
<path d="M265.817 176.981C261.522 177.713 257.12 178.029 252.451 178.206C249.33 178.324 246.635 177.56 244.051 175.854C234.472 169.525 224.754 163.409 215.413 156.712C210.04 152.86 204.775 148.872 199.489 144.907C198.947 144.5 198.777 144.247 199.274 143.616C202.2 139.894 204.594 135.819 206.777 131.639C208.74 127.878 210.54 124.026 212.134 120.088C212.65 118.813 213.036 117.483 213.431 116.163C213.7 115.265 213.995 114.979 215.008 115.466C226.144 120.826 236.819 127.029 247.556 133.122C249.949 134.48 252.422 135.696 254.845 137.001C255.44 137.322 255.98 137.138 256.555 137.004C263.464 135.397 270.374 133.272 277.09 130.991C283.005 128.982 286.185 127.944 292.096 131.663C294.591 133.233 297.061 135.095 298.359 137.742C300.396 141.9 299.063 146.882 297.303 151.165C295.71 155.04 293.791 158.78 291.573 162.335C290.219 164.503 288.736 166.623 286.837 168.335C284.96 170.025 282.727 171.269 280.453 172.371C275.557 174.742 270.759 176.138 265.817 176.981Z" fill="url(#paint21_linear_1134_392)"/>
<path d="M265.817 176.981C261.522 177.713 257.12 178.029 252.451 178.206C249.33 178.324 246.635 177.56 244.051 175.854C234.472 169.525 224.754 163.409 215.413 156.712C210.04 152.86 204.775 148.872 199.489 144.907C198.947 144.5 198.777 144.247 199.274 143.616C202.2 139.894 204.594 135.819 206.777 131.639C208.74 127.878 210.54 124.026 212.134 120.088C212.65 118.813 213.036 117.483 213.431 116.163C213.7 115.265 213.995 114.979 215.008 115.466C226.144 120.826 236.819 127.029 247.556 133.122C249.949 134.48 252.422 135.696 254.845 137.001C255.44 137.322 255.98 137.138 256.555 137.004C263.464 135.397 270.374 133.272 277.09 130.991C283.005 128.982 286.185 127.944 292.096 131.663C294.591 133.233 297.061 135.095 298.359 137.742C300.396 141.9 299.063 146.882 297.303 151.165C295.71 155.04 293.791 158.78 291.573 162.335C290.219 164.503 288.736 166.623 286.837 168.335C284.96 170.025 282.727 171.269 280.453 172.371C275.557 174.742 270.759 176.138 265.817 176.981Z" fill="url(#paint22_linear_1134_392)"/>
<path d="M18.0057 114.163C20.7215 114.074 23.3807 114.068 25.8375 113.994C36.6012 113.667 47.3651 113.339 58.1286 113.012C61.9036 112.897 65.6794 112.82 69.4466 113.169C70.3049 113.248 71.1569 113.432 72.0018 113.615C74.0351 114.055 75.2701 115.679 75.5163 118.316C75.7782 121.117 75.24 123.88 75.0602 126.661C74.6797 132.546 74.3897 138.438 74.16 144.331C74.0834 146.303 73.5295 148.145 72.4424 149.645C71.339 151.169 69.5053 151.914 67.6427 152.374C62.253 153.705 56.8361 154.938 51.4817 156.397C41.7246 159.056 31.8944 161.436 22.0777 163.861C14.6847 165.687 7.43554 168.676 -0.291331 168.741C-5.64017 168.785 -10.739 166.887 -13.7809 162.331C-16.1393 158.8 -16.067 154.206 -15.5129 149.996C-14.6366 143.335 -12.7658 136.806 -9.98163 130.692C-7.79522 125.891 -4.88997 121.18 -0.43846 118.348C4.70878 115.074 11.5188 114.378 18.0057 114.163Z" fill="url(#paint23_linear_1134_392)"/>
<path d="M196.5 94.0542C196.469 94.0443 196.44 94.0281 196.414 94.0054C194.279 92.1021 192.069 90.2098 189.932 88.3805C189.202 87.7554 188.472 87.131 187.744 86.5049C187.116 85.9645 186.498 85.407 185.88 84.8489C184.443 83.5515 182.958 82.2102 181.346 81.1121C181.238 81.0383 181.21 80.891 181.283 80.7834C181.356 80.6761 181.504 80.6482 181.611 80.7207C183.251 81.8371 184.749 83.1898 186.196 84.4973C186.812 85.053 187.426 85.6084 188.052 86.1462C188.78 86.7723 189.509 87.3967 190.239 88.0212C192.378 89.8525 194.591 91.746 196.728 93.6526C196.826 93.7397 196.835 93.8888 196.748 93.9863C196.684 94.0575 196.586 94.0813 196.5 94.0542Z" fill="#F4A076"/>
<path d="M192.969 96.4513C192.953 96.4461 192.936 96.4386 192.92 96.4293C190.325 94.8897 188.029 92.8966 185.807 90.9686L185.128 90.38C184.115 89.5034 183.096 88.6322 182.077 87.7611C180.424 86.347 178.715 84.8851 177.053 83.4217C176.955 83.3349 176.945 83.1855 177.032 83.0878C177.119 82.9897 177.268 82.9806 177.365 83.0664C179.024 84.5274 180.733 85.9885 182.385 87.4017C183.404 88.2735 184.423 89.1453 185.437 90.0227L186.117 90.6114C188.322 92.5253 190.603 94.5048 193.161 96.0227C193.273 96.0891 193.31 96.2344 193.244 96.347C193.187 96.4428 193.072 96.4837 192.969 96.4513Z" fill="#F4A076"/>
<path d="M189.947 101.287C189.56 101.123 189.385 100.923 189.201 100.712C189.116 100.615 189.026 100.51 188.904 100.4C186.43 98.1445 183.795 96.0325 181.247 93.9902C179.854 92.873 178.412 91.7173 177.007 90.5466C176.907 90.4629 176.893 90.3137 176.977 90.2135C177.06 90.1133 177.211 90.1002 177.31 90.1829C178.712 91.3511 180.152 92.5047 181.544 93.6208C184.097 95.6675 186.738 97.7842 189.223 100.05C189.36 100.175 189.462 100.292 189.557 100.4C189.725 100.592 189.845 100.73 190.111 100.844C190.231 100.895 190.287 101.034 190.236 101.154C190.187 101.267 190.061 101.323 189.947 101.287Z" fill="#F4A076"/>
<path d="M207.1 115.379C206.999 115.347 206.929 115.249 206.936 115.139L207.193 110.987C207.209 110.754 207.371 110.699 207.421 110.688C207.523 110.665 207.65 110.723 207.701 110.812C207.761 110.915 207.748 111.046 207.669 111.129C207.658 111.14 207.408 115.168 207.408 115.168C207.4 115.299 207.287 115.398 207.157 115.39C207.138 115.388 207.118 115.385 207.1 115.379Z" fill="#F4A076"/>
<path d="M100.761 124.639C100.69 124.616 100.63 124.56 100.606 124.483C100.568 124.358 100.639 124.225 100.763 124.188C103.169 123.451 105.317 122.746 107.242 121.562C109.433 120.215 110.979 118.381 111.596 116.399C111.634 116.274 111.767 116.204 111.891 116.243C112.016 116.283 112.085 116.415 112.047 116.539C111.396 118.631 109.778 120.558 107.49 121.964C105.516 123.178 103.339 123.894 100.901 124.64C100.853 124.654 100.805 124.653 100.761 124.639Z" fill="#F4A076"/>
<g style="mix-blend-mode:color" opacity="0.4">
<rect x="32" y="20" width="200" height="200" fill="#007AFF"/>
</g>
<rect x="44" y="32" width="112" height="40" rx="20" fill="white"/>
<rect x="44.5" y="32.5" width="111" height="39" rx="19.5" stroke="#667EFF" stroke-opacity="0.15"/>
<path d="M64.7102 59.4545V44.9091H65.642V59.4545H64.7102ZM67.625 49.4205C67.5644 48.8826 67.3144 48.4659 66.875 48.1705C66.4356 47.8712 65.8826 47.7216 65.2159 47.7216C64.7386 47.7216 64.3258 47.7973 63.9773 47.9489C63.6288 48.0966 63.358 48.3011 63.1648 48.5625C62.9754 48.8201 62.8807 49.1136 62.8807 49.4432C62.8807 49.7197 62.9451 49.9583 63.0739 50.1591C63.2064 50.3598 63.3788 50.5284 63.5909 50.6648C63.8068 50.7973 64.0379 50.9091 64.2841 51C64.5303 51.0871 64.767 51.1591 64.9943 51.2159L66.1307 51.5114C66.5019 51.6023 66.8826 51.7254 67.2727 51.8807C67.6629 52.036 68.0246 52.2405 68.358 52.4943C68.6913 52.7481 68.9602 53.0625 69.1648 53.4375C69.3731 53.8125 69.4773 54.2614 69.4773 54.7841C69.4773 55.4432 69.3068 56.0284 68.9659 56.5398C68.6288 57.0511 68.1383 57.4545 67.4943 57.75C66.8542 58.0455 66.0795 58.1932 65.1705 58.1932C64.2992 58.1932 63.5455 58.0549 62.9091 57.7784C62.2727 57.5019 61.7746 57.1098 61.4148 56.6023C61.0549 56.0909 60.8561 55.4848 60.8182 54.7841H62.5795C62.6136 55.2045 62.75 55.5549 62.9886 55.8352C63.2311 56.1117 63.5398 56.3182 63.9148 56.4545C64.2936 56.5871 64.7083 56.6534 65.1591 56.6534C65.6553 56.6534 66.0966 56.5758 66.483 56.4205C66.8731 56.2614 67.1799 56.0417 67.4034 55.7614C67.6269 55.4773 67.7386 55.1458 67.7386 54.767C67.7386 54.4223 67.6402 54.1402 67.4432 53.9205C67.25 53.7008 66.9867 53.5189 66.6534 53.375C66.3239 53.2311 65.9508 53.1042 65.5341 52.9943L64.1591 52.6193C63.2273 52.3655 62.4886 51.9924 61.9432 51.5C61.4015 51.0076 61.1307 50.3561 61.1307 49.5455C61.1307 48.875 61.3125 48.2898 61.6761 47.7898C62.0398 47.2898 62.5322 46.9015 63.1534 46.625C63.7746 46.3447 64.4754 46.2045 65.2557 46.2045C66.0436 46.2045 66.7386 46.3428 67.3409 46.6193C67.947 46.8958 68.4242 47.2765 68.7727 47.7614C69.1212 48.2424 69.303 48.7955 69.3182 49.4205H67.625Z" fill="black"/>
<path d="M78.0511 58.1591C77.2367 58.1591 76.517 58.0189 75.892 57.7386C75.2708 57.4583 74.7841 57.072 74.4318 56.5795C74.0795 56.0871 73.9053 55.5265 73.9091 54.8977C73.9053 54.4053 74.0057 53.9527 74.2102 53.5398C74.4186 53.1231 74.7008 52.7765 75.0568 52.5C75.4129 52.2197 75.8106 52.0417 76.25 51.9659V51.8977C75.6705 51.7576 75.2064 51.447 74.858 50.9659C74.5095 50.4848 74.3371 49.9318 74.3409 49.3068C74.3371 48.7121 74.4943 48.1818 74.8125 47.7159C75.1345 47.2462 75.5758 46.8769 76.1364 46.608C76.697 46.339 77.3352 46.2045 78.0511 46.2045C78.7595 46.2045 79.392 46.3409 79.9489 46.6136C80.5095 46.8826 80.9508 47.2519 81.2727 47.7216C81.5947 48.1875 81.7576 48.7159 81.7614 49.3068C81.7576 49.9318 81.5795 50.4848 81.2273 50.9659C80.875 51.447 80.4167 51.7576 79.8523 51.8977V51.9659C80.2879 52.0417 80.6799 52.2197 81.0284 52.5C81.3807 52.7765 81.661 53.1231 81.8693 53.5398C82.0814 53.9527 82.1894 54.4053 82.1932 54.8977C82.1894 55.5265 82.0114 56.0871 81.6591 56.5795C81.3068 57.072 80.8182 57.4583 80.1932 57.7386C79.572 58.0189 78.858 58.1591 78.0511 58.1591ZM78.0511 56.7216C78.5322 56.7216 78.9489 56.642 79.3011 56.483C79.6534 56.3201 79.9261 56.0947 80.1193 55.8068C80.3125 55.5152 80.411 55.1742 80.4148 54.7841C80.411 54.3788 80.3049 54.0208 80.0966 53.7102C79.892 53.3996 79.6136 53.1553 79.2614 52.9773C78.9091 52.7992 78.5057 52.7102 78.0511 52.7102C77.5928 52.7102 77.1856 52.7992 76.8295 52.9773C76.4735 53.1553 76.1932 53.3996 75.9886 53.7102C75.7841 54.0208 75.6837 54.3788 75.6875 54.7841C75.6837 55.1742 75.7765 55.5152 75.9659 55.8068C76.1591 56.0947 76.4337 56.3201 76.7898 56.483C77.1458 56.642 77.5663 56.7216 78.0511 56.7216ZM78.0511 51.3068C78.4375 51.3068 78.7803 51.2292 79.0795 51.0739C79.3788 50.9186 79.6136 50.7027 79.7841 50.4261C79.9583 50.1496 80.0473 49.8258 80.0511 49.4545C80.0473 49.0909 79.9602 48.7727 79.7898 48.5C79.6231 48.2273 79.3902 48.017 79.0909 47.8693C78.7917 47.7178 78.4451 47.642 78.0511 47.642C77.6496 47.642 77.2973 47.7178 76.9943 47.8693C76.6951 48.017 76.4621 48.2273 76.2955 48.5C76.1288 48.7727 76.0473 49.0909 76.0511 49.4545C76.0473 49.8258 76.1307 50.1496 76.3011 50.4261C76.4716 50.7027 76.7064 50.9186 77.0057 51.0739C77.3087 51.2292 77.6572 51.3068 78.0511 51.3068ZM88.2798 58.1932C87.3821 58.1894 86.6151 57.9527 85.9787 57.483C85.3423 57.0133 84.8556 56.3295 84.5185 55.4318C84.1813 54.5341 84.0128 53.4527 84.0128 52.1875C84.0128 50.9261 84.1813 49.8485 84.5185 48.9545C84.8594 48.0606 85.348 47.3788 85.9844 46.9091C86.6245 46.4394 87.3897 46.2045 88.2798 46.2045C89.17 46.2045 89.9332 46.4413 90.5696 46.9148C91.206 47.3845 91.6927 48.0663 92.0298 48.9602C92.3707 49.8504 92.5412 50.9261 92.5412 52.1875C92.5412 53.4564 92.3726 54.5398 92.0355 55.4375C91.6984 56.3314 91.2116 57.0152 90.5753 57.4886C89.9389 57.9583 89.1738 58.1932 88.2798 58.1932ZM88.2798 56.6761C89.0677 56.6761 89.6832 56.2917 90.1264 55.5227C90.5734 54.7538 90.7969 53.642 90.7969 52.1875C90.7969 51.2216 90.6946 50.4053 90.4901 49.7386C90.2893 49.0682 89.9995 48.5606 89.6207 48.2159C89.2457 47.8674 88.7988 47.6932 88.2798 47.6932C87.4957 47.6932 86.8802 48.0795 86.4332 48.8523C85.9863 49.625 85.7609 50.7367 85.7571 52.1875C85.7571 53.1572 85.8575 53.9773 86.0582 54.6477C86.2628 55.3144 86.5526 55.8201 86.9276 56.1648C87.3026 56.5057 87.7533 56.6761 88.2798 56.6761ZM98.608 58.1932C97.7102 58.1894 96.9432 57.9527 96.3068 57.483C95.6705 57.0133 95.1837 56.3295 94.8466 55.4318C94.5095 54.5341 94.3409 53.4527 94.3409 52.1875C94.3409 50.9261 94.5095 49.8485 94.8466 48.9545C95.1875 48.0606 95.6761 47.3788 96.3125 46.9091C96.9527 46.4394 97.7178 46.2045 98.608 46.2045C99.4981 46.2045 100.261 46.4413 100.898 46.9148C101.534 47.3845 102.021 48.0663 102.358 48.9602C102.699 49.8504 102.869 50.9261 102.869 52.1875C102.869 53.4564 102.701 54.5398 102.364 55.4375C102.027 56.3314 101.54 57.0152 100.903 57.4886C100.267 57.9583 99.5019 58.1932 98.608 58.1932ZM98.608 56.6761C99.3958 56.6761 100.011 56.2917 100.455 55.5227C100.902 54.7538 101.125 53.642 101.125 52.1875C101.125 51.2216 101.023 50.4053 100.818 49.7386C100.617 49.0682 100.328 48.5606 99.9489 48.2159C99.5739 47.8674 99.1269 47.6932 98.608 47.6932C97.8239 47.6932 97.2083 48.0795 96.7614 48.8523C96.3144 49.625 96.089 50.7367 96.0852 52.1875C96.0852 53.1572 96.1856 53.9773 96.3864 54.6477C96.5909 55.3144 96.8807 55.8201 97.2557 56.1648C97.6307 56.5057 98.0814 56.6761 98.608 56.6761ZM108.936 58.1932C108.038 58.1894 107.271 57.9527 106.635 57.483C105.999 57.0133 105.512 56.3295 105.175 55.4318C104.838 54.5341 104.669 53.4527 104.669 52.1875C104.669 50.9261 104.838 49.8485 105.175 48.9545C105.516 48.0606 106.004 47.3788 106.641 46.9091C107.281 46.4394 108.046 46.2045 108.936 46.2045C109.826 46.2045 110.589 46.4413 111.226 46.9148C111.862 47.3845 112.349 48.0663 112.686 48.9602C113.027 49.8504 113.197 50.9261 113.197 52.1875C113.197 53.4564 113.029 54.5398 112.692 55.4375C112.355 56.3314 111.868 57.0152 111.232 57.4886C110.595 57.9583 109.83 58.1932 108.936 58.1932ZM108.936 56.6761C109.724 56.6761 110.339 56.2917 110.783 55.5227C111.23 54.7538 111.453 53.642 111.453 52.1875C111.453 51.2216 111.351 50.4053 111.146 49.7386C110.946 49.0682 110.656 48.5606 110.277 48.2159C109.902 47.8674 109.455 47.6932 108.936 47.6932C108.152 47.6932 107.536 48.0795 107.089 48.8523C106.643 49.625 106.417 50.7367 106.413 52.1875C106.413 53.1572 106.514 53.9773 106.714 54.6477C106.919 55.3144 107.209 55.8201 107.584 56.1648C107.959 56.5057 108.41 56.6761 108.936 56.6761Z" fill="black"/>
<g clip-path="url(#clip1_1134_392)">
<path d="M126.003 48.0027C124.343 48.3838 122.892 49.3856 121.948 50.8024C121.003 52.2193 120.637 53.9438 120.923 55.6223C121.21 57.3008 122.128 58.806 123.489 59.8291C124.85 60.8523 126.551 61.3158 128.243 61.1247C129.935 60.9336 131.49 60.1022 132.588 58.8012C133.687 57.5002 134.246 55.8281 134.151 54.128C134.056 52.4279 133.314 50.8285 132.077 49.6581C130.841 48.4877 129.203 47.8348 127.5 47.8335C126.985 47.8335 126.483 47.8918 126.003 48.0027Z" fill="#FFB800"/>
<path d="M126.703 46.2042C126.966 46.1792 127.231 46.1667 127.5 46.1667C132.102 46.1667 135.833 49.8976 135.833 54.5001C135.833 54.7684 135.821 55.0342 135.796 55.2967C136.687 54.7892 137.45 54.0827 138.024 53.2322C138.598 52.3817 138.968 51.4102 139.105 50.3933C139.242 49.3765 139.142 48.3417 138.814 47.3696C138.486 46.3975 137.937 45.5143 137.212 44.7888C136.486 44.0633 135.603 43.515 134.631 43.1867C133.659 42.8584 132.624 42.7589 131.607 42.8959C130.591 43.033 129.619 43.4029 128.769 43.9769C127.918 44.5508 127.212 45.3133 126.704 46.2051L126.703 46.2042Z" fill="#FFB800"/>
</g>
</g>
</g>
<defs>
<filter id="filter0_d_1134_392" x="0" y="0" width="264" height="264" filterUnits="userSpaceOnUse" color-interpolation-filters="sRGB">
<feFlood flood-opacity="0" result="BackgroundImageFix"/>
<feColorMatrix in="SourceAlpha" type="matrix" values="0 0 0 0 0 0 0 0 0 0 0 0 0 0 0 0 0 0 127 0" result="hardAlpha"/>
<feOffset dy="12"/>
<feGaussianBlur stdDeviation="16"/>
<feComposite in2="hardAlpha" operator="out"/>
<feColorMatrix type="matrix" values="0 0 0 0 0 0 0 0 0 0.1875 0 0 0 0 0.4125 0 0 0 0.05 0"/>
<feBlend mode="normal" in2="BackgroundImageFix" result="effect1_dropShadow_1134_392"/>
<feBlend mode="normal" in="SourceGraphic" in2="effect1_dropShadow_1134_392" result="shape"/>
</filter>
<linearGradient id="paint0_linear_1134_392" x1="184.287" y1="169.862" x2="182.241" y2="184.016" gradientUnits="userSpaceOnUse">
<stop stop-color="#64BCD0"/>
<stop offset="1" stop-color="#268999"/>
</linearGradient>
<linearGradient id="paint1_linear_1134_392" x1="184.287" y1="169.862" x2="182.241" y2="184.016" gradientUnits="userSpaceOnUse">
<stop stop-color="#64BCD0"/>
<stop offset="1" stop-color="#156572"/>
</linearGradient>
<linearGradient id="paint2_linear_1134_392" x1="181.132" y1="163.607" x2="155.204" y2="152.26" gradientUnits="userSpaceOnUse">
<stop stop-color="#FCBF9D"/>
<stop offset="1" stop-color="#F4A076"/>
</linearGradient>
<linearGradient id="paint3_linear_1134_392" x1="141.969" y1="139.929" x2="153.626" y2="146.652" gradientUnits="userSpaceOnUse">
<stop stop-color="#F4A076"/>
<stop offset="1" stop-color="#FCBF9D"/>
</linearGradient>
<linearGradient id="paint4_linear_1134_392" x1="141.14" y1="145.792" x2="153.972" y2="153.194" gradientUnits="userSpaceOnUse">
<stop stop-color="#F4A076"/>
<stop offset="1" stop-color="#FCBF9D"/>
</linearGradient>
<linearGradient id="paint5_linear_1134_392" x1="142.089" y1="152.595" x2="153.709" y2="159.297" gradientUnits="userSpaceOnUse">
<stop stop-color="#F4A076"/>
<stop offset="1" stop-color="#FCBF9D"/>
</linearGradient>
<linearGradient id="paint6_linear_1134_392" x1="145.414" y1="157.445" x2="155.278" y2="163.135" gradientUnits="userSpaceOnUse">
<stop stop-color="#F4A076"/>
<stop offset="1" stop-color="#FCBF9D"/>
</linearGradient>
<linearGradient id="paint7_linear_1134_392" x1="172.417" y1="196.289" x2="275.584" y2="228.843" gradientUnits="userSpaceOnUse">
<stop stop-color="#FE4845"/>
<stop offset="1" stop-color="#F4A076"/>
</linearGradient>
<linearGradient id="paint8_linear_1134_392" x1="229.004" y1="191.209" x2="219.26" y2="225.984" gradientUnits="userSpaceOnUse">
<stop stop-color="#64BCD0"/>
<stop offset="1" stop-color="#268999"/>
</linearGradient>
<linearGradient id="paint9_linear_1134_392" x1="77.1025" y1="197.416" x2="147.854" y2="219.741" gradientUnits="userSpaceOnUse">
<stop stop-color="#D32424"/>
<stop offset="1" stop-color="#FE4845"/>
</linearGradient>
<linearGradient id="paint10_linear_1134_392" x1="120.751" y1="178.59" x2="108.65" y2="228.38" gradientUnits="userSpaceOnUse">
<stop stop-color="#64BCD0"/>
<stop offset="1" stop-color="#156572"/>
</linearGradient>
<linearGradient id="paint11_linear_1134_392" x1="158.962" y1="183.546" x2="153.011" y2="233.894" gradientUnits="userSpaceOnUse">
<stop stop-color="#369BB3"/>
<stop offset="1" stop-color="#156572"/>
</linearGradient>
<linearGradient id="paint12_linear_1134_392" x1="137.747" y1="174.004" x2="137.133" y2="176.39" gradientUnits="userSpaceOnUse">
<stop stop-color="#64BCD0"/>
<stop offset="1" stop-color="#156572"/>
</linearGradient>
<linearGradient id="paint13_linear_1134_392" x1="102.665" y1="167.717" x2="102.051" y2="170.103" gradientUnits="userSpaceOnUse">
<stop stop-color="#64BCD0"/>
<stop offset="1" stop-color="#156572"/>
</linearGradient>
<linearGradient id="paint14_linear_1134_392" x1="74.0589" y1="119.079" x2="129.842" y2="136.681" gradientUnits="userSpaceOnUse">
<stop stop-color="#FCBF9D"/>
<stop offset="1" stop-color="#F4A076"/>
</linearGradient>
<linearGradient id="paint15_linear_1134_392" x1="117.462" y1="127.938" x2="132.744" y2="132.761" gradientUnits="userSpaceOnUse">
<stop stop-color="#FCBF9D"/>
<stop offset="1" stop-color="#F4A076"/>
</linearGradient>
<linearGradient id="paint16_linear_1134_392" x1="123.304" y1="121.84" x2="137.377" y2="126.281" gradientUnits="userSpaceOnUse">
<stop stop-color="#FCBF9D"/>
<stop offset="1" stop-color="#F4A076"/>
</linearGradient>
<linearGradient id="paint17_linear_1134_392" x1="108.643" y1="137.666" x2="119.857" y2="141.205" gradientUnits="userSpaceOnUse">
<stop stop-color="#FCBF9D"/>
<stop offset="1" stop-color="#F4A076"/>
</linearGradient>
<linearGradient id="paint18_linear_1134_392" x1="209.054" y1="119.272" x2="207.219" y2="136.362" gradientUnits="userSpaceOnUse">
<stop stop-color="#64BCD0"/>
<stop offset="1" stop-color="#156572"/>
</linearGradient>
<linearGradient id="paint19_linear_1134_392" x1="112.603" y1="133.539" x2="126.334" y2="137.872" gradientUnits="userSpaceOnUse">
<stop stop-color="#FCBF9D"/>
<stop offset="1" stop-color="#F4A076"/>
</linearGradient>
<linearGradient id="paint20_linear_1134_392" x1="170.248" y1="102.099" x2="222.515" y2="118.592" gradientUnits="userSpaceOnUse">
<stop stop-color="#FCBF9D"/>
<stop offset="1" stop-color="#F4A076"/>
</linearGradient>
<linearGradient id="paint21_linear_1134_392" x1="202.494" y1="133.021" x2="294.061" y2="161.915" gradientUnits="userSpaceOnUse">
<stop stop-color="#FE4845"/>
<stop offset="1" stop-color="#F4A076"/>
</linearGradient>
<linearGradient id="paint22_linear_1134_392" x1="252.576" y1="128.96" x2="244.114" y2="159.072" gradientUnits="userSpaceOnUse">
<stop stop-color="#64BCD0"/>
<stop offset="1" stop-color="#268999"/>
</linearGradient>
<linearGradient id="paint23_linear_1134_392" x1="37.3636" y1="116.286" x2="26.9293" y2="155.639" gradientUnits="userSpaceOnUse">
<stop stop-color="#64BCD0"/>
<stop offset="1" stop-color="#268999"/>
</linearGradient>
<clipPath id="clip0_1134_392">
<rect x="32" y="20" width="200" height="200" rx="24" fill="white"/>
</clipPath>
<clipPath id="clip1_1134_392">
<rect width="20" height="20" fill="white" transform="translate(120 42)"/>
</clipPath>
</defs>
</svg>