<svg width="40" height="40" viewBox="0 0 40 40" fill="none" xmlns="http://www.w3.org/2000/svg">
<g clip-path="url(#clip0_2056_64392)">
<rect width="40" height="40" rx="13.3333" fill="white"/>
<ellipse opacity="0.4" cx="40.9099" cy="40.3134" rx="39.1667" ry="16.6667" transform="rotate(45 40.9099 40.3134)" fill="url(#paint0_radial_2056_64392)"/>
<ellipse opacity="0.5" cx="20.1526" cy="19.7633" rx="39.1667" ry="6.23771" transform="rotate(-45 20.1526 19.7633)" fill="url(#paint1_radial_2056_64392)"/>
<ellipse opacity="0.4" cx="-4.0901" cy="-4.68662" rx="39.1667" ry="16.6667" transform="rotate(45 -4.0901 -4.68662)" fill="url(#paint2_radial_2056_64392)"/>
<rect x="0.416667" y="0.416667" width="39.1667" height="39.1667" rx="12.9167" stroke="#001B72" stroke-opacity="0.15" stroke-width="0.833333"/>
<rect x="0.416667" y="0.416667" width="39.1667" height="39.1667" rx="12.9167" stroke="#001B72" stroke-opacity="0.15" stroke-width="0.833333"/>
<path d="M21.476 26.552C21.476 23.7898 23.1676 21.4374 26.1422 21.4374C29.1268 21.4374 30.8359 23.7722 30.8359 26.552C30.8359 29.3221 29.1164 31.6667 26.1422 31.6667C23.158 31.6667 21.476 29.3234 21.476 26.552ZM24.6556 26.552C24.6556 27.5716 24.8303 28.861 26.1422 28.861C27.4636 28.861 27.615 27.5759 27.615 26.552C27.615 25.5227 27.4843 24.2098 26.1422 24.2297C24.8184 24.2085 24.6556 25.5344 24.6556 26.552ZM10.8359 15.1146C10.8359 12.3572 12.5509 10 15.5159 10C18.5186 10 20.2096 12.3241 20.2096 15.1146C20.2096 17.9223 18.5139 20.1758 15.5159 20.2024C12.5416 20.176 10.8359 17.9021 10.8359 15.1146ZM14.0706 15.1146C14.0706 16.1149 14.207 17.4311 15.5159 17.4102C16.8495 17.4308 16.975 16.1334 16.975 15.1146C16.975 14.0767 16.8598 12.7856 15.5159 12.7654C14.2102 12.7859 14.0706 14.105 14.0706 15.1146ZM14.5056 30.8344C13.5937 30.8344 13.0606 29.8065 13.5859 29.0611L26.0951 11.3093C26.3059 11.0102 26.6489 10.8323 27.0148 10.8323C27.9267 10.8323 28.4599 11.8602 27.9346 12.6056L15.4254 30.3573C15.2146 30.6564 14.8715 30.8344 14.5056 30.8344Z" fill="white"/>
<path d="M20.6401 25.7188C20.6401 22.9565 22.3317 20.6042 25.3063 20.6042C28.2908 20.6042 30 22.939 30 25.7188C30 28.4888 28.2805 30.8334 25.3063 30.8334C22.322 30.8334 20.6401 28.4901 20.6401 25.7188ZM23.8197 25.7188C23.8197 26.7384 23.9944 28.0278 25.3063 28.0278C26.6277 28.0278 26.7791 26.7426 26.7791 25.7188C26.7791 24.6894 26.6484 23.3766 25.3063 23.3964C23.9825 23.3752 23.8197 24.7012 23.8197 25.7188ZM10 14.2814C10 11.524 11.715 9.16675 14.68 9.16675C17.6827 9.16675 19.3737 11.4908 19.3737 14.2814C19.3737 17.089 17.6779 19.3426 14.68 19.3691C11.7056 19.3428 10 17.0688 10 14.2814ZM13.2347 14.2814C13.2347 15.2816 13.371 16.5978 14.68 16.5769C16.0135 16.5976 16.139 15.3001 16.139 14.2814C16.139 13.2434 16.0239 11.9523 14.68 11.9321C13.3743 11.9527 13.2347 13.2718 13.2347 14.2814ZM13.6697 30.0011C12.7578 30.0011 12.2247 28.9732 12.7499 28.2278L25.2592 10.4761C25.4699 10.177 25.813 9.99905 26.1789 9.99905C27.0908 9.99905 27.6239 11.0269 27.0986 11.7723L14.5894 29.5241C14.3787 29.8232 14.0356 30.0011 13.6697 30.0011Z" fill="#020619"/>
</g>
<defs>
<radialGradient id="paint0_radial_2056_64392" cx="0" cy="0" r="1" gradientUnits="userSpaceOnUse" gradientTransform="translate(40.9099 40.3134) rotate(90) scale(16.6667 39.1667)">
<stop stop-color="#008DF2"/>
<stop offset="1" stop-color="#008DF2" stop-opacity="0"/>
</radialGradient>
<radialGradient id="paint1_radial_2056_64392" cx="0" cy="0" r="1" gradientUnits="userSpaceOnUse" gradientTransform="translate(20.1526 19.7633) rotate(90) scale(6.23771 39.1667)">
<stop stop-color="#C6C6C6"/>
<stop offset="1" stop-color="#C6C6C6" stop-opacity="0"/>
</radialGradient>
<radialGradient id="paint2_radial_2056_64392" cx="0" cy="0" r="1" gradientUnits="userSpaceOnUse" gradientTransform="translate(-4.0901 -4.68662) rotate(90) scale(16.6667 39.1667)">
<stop stop-color="#00F285"/>
<stop offset="1" stop-color="#00F285" stop-opacity="0"/>
</radialGradient>
<clipPath id="clip0_2056_64392">
<rect width="40" height="40" rx="13.3333" fill="white"/>
</clipPath>
</defs>
</svg>