<svg width="264" height="264" viewBox="0 0 264 264" fill="none" xmlns="http://www.w3.org/2000/svg">
<g filter="url(#filter0_d_1100_1465)">
<g clip-path="url(#clip0_1100_1465)">
<rect x="32" y="20" width="200" height="200" rx="32" fill="#EBF1F7"/>
<rect opacity="0.4" x="48" y="20" width="2" height="200" fill="url(#paint0_linear_1100_1465)"/>
<rect opacity="0.4" x="68.75" y="20" width="2" height="200" fill="url(#paint1_linear_1100_1465)"/>
<rect opacity="0.4" x="89.5" y="20" width="2" height="200" fill="url(#paint2_linear_1100_1465)"/>
<rect opacity="0.4" x="110.25" y="20" width="2" height="200" fill="url(#paint3_linear_1100_1465)"/>
<rect opacity="0.4" x="131" y="20" width="2" height="200" fill="url(#paint4_linear_1100_1465)"/>
<rect opacity="0.4" x="151.75" y="20" width="2" height="200" fill="url(#paint5_linear_1100_1465)"/>
<rect opacity="0.4" x="172.5" y="20" width="2" height="200" fill="url(#paint6_linear_1100_1465)"/>
<rect opacity="0.4" x="193.25" y="20" width="2" height="200" fill="url(#paint7_linear_1100_1465)"/>
<rect opacity="0.4" x="214" y="20" width="2" height="200" fill="url(#paint8_linear_1100_1465)"/>
<path d="M49 170L89.4728 130.958C90.2526 130.205 91.4897 130.211 92.2628 130.97L130.449 168.476C131.284 169.296 132.641 169.227 133.389 168.327L215 70" stroke="#64BCD0" stroke-width="12" stroke-linecap="round"/>
<g style="mix-blend-mode:color" opacity="0.4">
<rect x="32" y="20" width="200" height="200" fill="#007AFF"/>
</g>
<rect x="44" y="32" width="116" height="40" rx="20" fill="white"/>
<rect x="44.5" y="32.5" width="115" height="39" rx="19.5" stroke="#667EFF" stroke-opacity="0.15"/>
<path d="M77.2529 45.094C75.3263 43.4262 72.4611 43.7262 70.6928 45.5797L70.0003 46.3047L69.3077 45.5797C67.5429 43.7262 64.6742 43.4262 62.7477 45.094C60.5399 47.0083 60.4239 50.4439 62.3996 52.5189L69.2022 59.6545C69.6417 60.1152 70.3553 60.1152 70.7948 59.6545L77.5974 52.5189C79.5766 50.4439 79.4606 47.0083 77.2529 45.094Z" fill="#FF002E"/>
<path d="M90.5341 46.3636V58H88.7727V48.125H88.7045L85.9205 49.9432V48.2614L88.8239 46.3636H90.5341ZM97.733 58.1932C96.8352 58.1894 96.0682 57.9527 95.4318 57.483C94.7955 57.0133 94.3087 56.3295 93.9716 55.4318C93.6345 54.5341 93.4659 53.4527 93.4659 52.1875C93.4659 50.9261 93.6345 49.8485 93.9716 48.9545C94.3125 48.0606 94.8011 47.3788 95.4375 46.9091C96.0777 46.4394 96.8428 46.2045 97.733 46.2045C98.6231 46.2045 99.3864 46.4413 100.023 46.9148C100.659 47.3845 101.146 48.0663 101.483 48.9602C101.824 49.8504 101.994 50.9261 101.994 52.1875C101.994 53.4564 101.826 54.5398 101.489 55.4375C101.152 56.3314 100.665 57.0152 100.028 57.4886C99.392 57.9583 98.6269 58.1932 97.733 58.1932ZM97.733 56.6761C98.5208 56.6761 99.1364 56.2917 99.5795 55.5227C100.027 54.7538 100.25 53.642 100.25 52.1875C100.25 51.2216 100.148 50.4053 99.9432 49.7386C99.7424 49.0682 99.4527 48.5606 99.0739 48.2159C98.6989 47.8674 98.2519 47.6932 97.733 47.6932C96.9489 47.6932 96.3333 48.0795 95.8864 48.8523C95.4394 49.625 95.214 50.7367 95.2102 52.1875C95.2102 53.1572 95.3106 53.9773 95.5114 54.6477C95.7159 55.3144 96.0057 55.8201 96.3807 56.1648C96.7557 56.5057 97.2064 56.6761 97.733 56.6761ZM108.061 58.1932C107.163 58.1894 106.396 57.9527 105.76 57.483C105.124 57.0133 104.637 56.3295 104.3 55.4318C103.963 54.5341 103.794 53.4527 103.794 52.1875C103.794 50.9261 103.963 49.8485 104.3 48.9545C104.641 48.0606 105.129 47.3788 105.766 46.9091C106.406 46.4394 107.171 46.2045 108.061 46.2045C108.951 46.2045 109.714 46.4413 110.351 46.9148C110.987 47.3845 111.474 48.0663 111.811 48.9602C112.152 49.8504 112.322 50.9261 112.322 52.1875C112.322 53.4564 112.154 54.5398 111.817 55.4375C111.48 56.3314 110.993 57.0152 110.357 57.4886C109.72 57.9583 108.955 58.1932 108.061 58.1932ZM108.061 56.6761C108.849 56.6761 109.464 56.2917 109.908 55.5227C110.355 54.7538 110.578 53.642 110.578 52.1875C110.578 51.2216 110.476 50.4053 110.271 49.7386C110.071 49.0682 109.781 48.5606 109.402 48.2159C109.027 47.8674 108.58 47.6932 108.061 47.6932C107.277 47.6932 106.661 48.0795 106.214 48.8523C105.768 49.625 105.542 50.7367 105.538 52.1875C105.538 53.1572 105.639 53.9773 105.839 54.6477C106.044 55.3144 106.334 55.8201 106.709 56.1648C107.084 56.5057 107.535 56.6761 108.061 56.6761ZM118.179 58.1591C117.467 58.1591 116.827 58.0227 116.259 57.75C115.694 57.4735 115.243 57.0947 114.906 56.6136C114.569 56.1326 114.389 55.5833 114.366 54.9659H116.071C116.113 55.4659 116.334 55.8769 116.736 56.1989C117.137 56.5208 117.618 56.6818 118.179 56.6818C118.626 56.6818 119.022 56.5795 119.366 56.375C119.715 56.1667 119.988 55.8807 120.185 55.517C120.385 55.1534 120.486 54.7386 120.486 54.2727C120.486 53.7992 120.384 53.3769 120.179 53.0057C119.974 52.6345 119.692 52.3428 119.332 52.1307C118.976 51.9186 118.567 51.8106 118.105 51.8068C117.753 51.8068 117.399 51.8674 117.043 51.9886C116.687 52.1098 116.399 52.2689 116.179 52.4659L114.571 52.2273L115.224 46.3636H121.622V47.8693H116.685L116.315 51.125H116.384C116.611 50.9053 116.912 50.7216 117.287 50.5739C117.666 50.4261 118.071 50.3523 118.503 50.3523C119.211 50.3523 119.842 50.5208 120.395 50.858C120.952 51.1951 121.389 51.6553 121.707 52.2386C122.029 52.8182 122.188 53.4848 122.185 54.2386C122.188 54.9924 122.018 55.6648 121.673 56.2557C121.332 56.8466 120.859 57.3125 120.253 57.6534C119.651 57.9905 118.959 58.1591 118.179 58.1591ZM128.311 58.1932C127.413 58.1894 126.646 57.9527 126.01 57.483C125.374 57.0133 124.887 56.3295 124.55 55.4318C124.213 54.5341 124.044 53.4527 124.044 52.1875C124.044 50.9261 124.213 49.8485 124.55 48.9545C124.891 48.0606 125.379 47.3788 126.016 46.9091C126.656 46.4394 127.421 46.2045 128.311 46.2045C129.201 46.2045 129.964 46.4413 130.601 46.9148C131.237 47.3845 131.724 48.0663 132.061 48.9602C132.402 49.8504 132.572 50.9261 132.572 52.1875C132.572 53.4564 132.404 54.5398 132.067 55.4375C131.73 56.3314 131.243 57.0152 130.607 57.4886C129.97 57.9583 129.205 58.1932 128.311 58.1932ZM128.311 56.6761C129.099 56.6761 129.714 56.2917 130.158 55.5227C130.605 54.7538 130.828 53.642 130.828 52.1875C130.828 51.2216 130.726 50.4053 130.521 49.7386C130.321 49.0682 130.031 48.5606 129.652 48.2159C129.277 47.8674 128.83 47.6932 128.311 47.6932C127.527 47.6932 126.911 48.0795 126.464 48.8523C126.018 49.625 125.792 50.7367 125.788 52.1875C125.788 53.1572 125.889 53.9773 126.089 54.6477C126.294 55.3144 126.584 55.8201 126.959 56.1648C127.334 56.5057 127.785 56.6761 128.311 56.6761ZM138.639 58.1932C137.741 58.1894 136.974 57.9527 136.338 57.483C135.702 57.0133 135.215 56.3295 134.878 55.4318C134.541 54.5341 134.372 53.4527 134.372 52.1875C134.372 50.9261 134.541 49.8485 134.878 48.9545C135.219 48.0606 135.707 47.3788 136.344 46.9091C136.984 46.4394 137.749 46.2045 138.639 46.2045C139.529 46.2045 140.293 46.4413 140.929 46.9148C141.565 47.3845 142.052 48.0663 142.389 48.9602C142.73 49.8504 142.901 50.9261 142.901 52.1875C142.901 53.4564 142.732 54.5398 142.395 55.4375C142.058 56.3314 141.571 57.0152 140.935 57.4886C140.298 57.9583 139.533 58.1932 138.639 58.1932ZM138.639 56.6761C139.427 56.6761 140.043 56.2917 140.486 55.5227C140.933 54.7538 141.156 53.642 141.156 52.1875C141.156 51.2216 141.054 50.4053 140.849 49.7386C140.649 49.0682 140.359 48.5606 139.98 48.2159C139.605 47.8674 139.158 47.6932 138.639 47.6932C137.855 47.6932 137.24 48.0795 136.793 48.8523C136.346 49.625 136.12 50.7367 136.116 52.1875C136.116 53.1572 136.217 53.9773 136.418 54.6477C136.622 55.3144 136.912 55.8201 137.287 56.1648C137.662 56.5057 138.113 56.6761 138.639 56.6761Z" fill="black"/>
</g>
</g>
<defs>
<filter id="filter0_d_1100_1465" x="0" y="0" width="264" height="264" filterUnits="userSpaceOnUse" color-interpolation-filters="sRGB">
<feFlood flood-opacity="0" result="BackgroundImageFix"/>
<feColorMatrix in="SourceAlpha" type="matrix" values="0 0 0 0 0 0 0 0 0 0 0 0 0 0 0 0 0 0 127 0" result="hardAlpha"/>
<feOffset dy="12"/>
<feGaussianBlur stdDeviation="16"/>
<feComposite in2="hardAlpha" operator="out"/>
<feColorMatrix type="matrix" values="0 0 0 0 0 0 0 0 0 0.1875 0 0 0 0 0.4125 0 0 0 0.05 0"/>
<feBlend mode="normal" in2="BackgroundImageFix" result="effect1_dropShadow_1100_1465"/>
<feBlend mode="normal" in="SourceGraphic" in2="effect1_dropShadow_1100_1465" result="shape"/>
</filter>
<linearGradient id="paint0_linear_1100_1465" x1="49" y1="20" x2="49" y2="220" gradientUnits="userSpaceOnUse">
<stop stop-color="#D9D9D9"/>
<stop offset="1" stop-color="#D9D9D9" stop-opacity="0"/>
</linearGradient>
<linearGradient id="paint1_linear_1100_1465" x1="69.75" y1="20" x2="69.75" y2="220" gradientUnits="userSpaceOnUse">
<stop stop-color="#D9D9D9"/>
<stop offset="1" stop-color="#D9D9D9" stop-opacity="0"/>
</linearGradient>
<linearGradient id="paint2_linear_1100_1465" x1="90.5" y1="20" x2="90.5" y2="220" gradientUnits="userSpaceOnUse">
<stop stop-color="#D9D9D9"/>
<stop offset="1" stop-color="#D9D9D9" stop-opacity="0"/>
</linearGradient>
<linearGradient id="paint3_linear_1100_1465" x1="111.25" y1="20" x2="111.25" y2="220" gradientUnits="userSpaceOnUse">
<stop stop-color="#D9D9D9"/>
<stop offset="1" stop-color="#D9D9D9" stop-opacity="0"/>
</linearGradient>
<linearGradient id="paint4_linear_1100_1465" x1="132" y1="20" x2="132" y2="220" gradientUnits="userSpaceOnUse">
<stop stop-color="#D9D9D9"/>
<stop offset="1" stop-color="#D9D9D9" stop-opacity="0"/>
</linearGradient>
<linearGradient id="paint5_linear_1100_1465" x1="152.75" y1="20" x2="152.75" y2="220" gradientUnits="userSpaceOnUse">
<stop stop-color="#D9D9D9"/>
<stop offset="1" stop-color="#D9D9D9" stop-opacity="0"/>
</linearGradient>
<linearGradient id="paint6_linear_1100_1465" x1="173.5" y1="20" x2="173.5" y2="220" gradientUnits="userSpaceOnUse">
<stop stop-color="#D9D9D9"/>
<stop offset="1" stop-color="#D9D9D9" stop-opacity="0"/>
</linearGradient>
<linearGradient id="paint7_linear_1100_1465" x1="194.25" y1="20" x2="194.25" y2="220" gradientUnits="userSpaceOnUse">
<stop stop-color="#D9D9D9"/>
<stop offset="1" stop-color="#D9D9D9" stop-opacity="0"/>
</linearGradient>
<linearGradient id="paint8_linear_1100_1465" x1="215" y1="20" x2="215" y2="220" gradientUnits="userSpaceOnUse">
<stop stop-color="#D9D9D9"/>
<stop offset="1" stop-color="#D9D9D9" stop-opacity="0"/>
</linearGradient>
<clipPath id="clip0_1100_1465">
<rect x="32" y="20" width="200" height="200" rx="32" fill="white"/>
</clipPath>
</defs>
</svg>