<svg width="20" height="20" viewBox="0 0 20 20" fill="none" xmlns="http://www.w3.org/2000/svg">
    <g clip-path="url(#clip0)">
        <path opacity="0.4" d="M5.56242 16.2498C4.98961 18.5341 4.11133 20 3.125 20C1.39906 20 0 15.5229 0 10C0 4.47715 1.39906 0 3.125 0C4.39117 0 5.47883 2.41387 5.96984 5.87793C5.57082 6.31676 5.50965 6.97715 5.88379 7.46359C5.96413 7.55919 6.05873 7.64183 6.16426 7.70859C6.21836 8.44559 6.25 9.21016 6.25 10C6.25193 11.2535 6.17539 12.5059 6.02082 13.7498H5C4.66847 13.7498 4.35052 13.8815 4.11609 14.1159C3.88166 14.3503 3.74996 14.6683 3.74996 14.9998C3.74996 15.3313 3.88166 15.6493 4.11609 15.8837C4.35052 16.1181 4.66847 16.2498 5 16.2498H5.56242Z" fill="#AFC0D5"/>
        <path d="M14.3751 3.75008C14.7459 3.75009 15.1084 3.64012 15.4168 3.43409C15.7251 3.22807 15.9655 2.93522 16.1074 2.5926C16.2493 2.24998 16.2865 1.87297 16.2141 1.50925C16.1418 1.14552 15.9632 0.811418 15.701 0.549187C15.4387 0.286956 15.1046 0.108375 14.7409 0.0360273C14.3772 -0.0363203 14.0002 0.000815056 13.6575 0.142737C13.3149 0.284659 13.0221 0.524994 12.816 0.833348C12.61 1.1417 12.5 1.50423 12.5001 1.87508C12.5001 2.37235 12.6976 2.84926 13.0493 3.20088C13.4009 3.55251 13.8778 3.75006 14.3751 3.75008ZM8.19095 12.4015L7.61235 13.7498H5.00004C4.66851 13.7498 4.35056 13.8815 4.11613 14.1159C3.8817 14.3503 3.75 14.6683 3.75 14.9998C3.75 15.3313 3.8817 15.6493 4.11613 15.8837C4.35056 16.1181 4.66851 16.2498 5.00004 16.2498H8.02497C8.39198 16.2503 8.75104 16.1429 9.05749 15.941C9.36395 15.739 9.60428 15.4514 9.7486 15.114L10.0916 14.3119L9.67532 14.0659C9.0222 13.6757 8.5042 13.0948 8.19095 12.4015V12.4015ZM18.7501 8.74961H17.0301L16.012 6.66945C15.5237 5.67152 14.6265 4.94219 13.5987 4.67973L10.8228 3.85383C10.2796 3.72217 9.71388 3.71399 9.16714 3.82988C8.62041 3.94577 8.10663 4.18278 7.6636 4.52348L6.11575 5.71121C5.98549 5.81108 5.87619 5.93563 5.79407 6.07775C5.71195 6.21986 5.65863 6.37676 5.63715 6.53948C5.59376 6.86811 5.6827 7.20052 5.8844 7.46357C6.0861 7.72663 6.38404 7.89879 6.71267 7.94217C7.0413 7.98556 7.37371 7.89662 7.63676 7.69492L9.18708 6.50711C9.48614 6.27703 9.86821 6.19461 10.1734 6.26727L10.7471 6.43813L9.2847 9.85199C9.04691 10.4107 9.02004 11.0367 9.20909 11.6138C9.39814 12.1908 9.79025 12.6796 10.3126 12.9893L13.6304 14.9492L12.5586 18.3757C12.5094 18.5323 12.4915 18.697 12.506 18.8605C12.5205 19.0239 12.567 19.1829 12.643 19.3284C12.7189 19.4739 12.8228 19.6029 12.9487 19.7082C13.0746 19.8135 13.2199 19.893 13.3765 19.942C13.5332 19.9915 13.6982 20.0096 13.8619 19.9952C14.0256 19.9808 14.1848 19.9342 14.3304 19.8581C14.4761 19.782 14.6052 19.6778 14.7105 19.5517C14.8158 19.4255 14.8951 19.2798 14.9439 19.1229L16.1793 15.175C16.2914 14.7772 16.2694 14.3536 16.1167 13.9696C15.9641 13.5856 15.6892 13.2625 15.3346 13.0503L12.942 11.6385L14.1651 8.58055L14.9573 10.1993C15.1126 10.5135 15.3523 10.7783 15.6497 10.9638C15.947 11.1494 16.2902 11.2484 16.6407 11.2497H18.7501C19.0816 11.2497 19.3996 11.118 19.634 10.8836C19.8684 10.6491 20.0001 10.3312 20.0001 9.99965C20.0001 9.66812 19.8684 9.35017 19.634 9.11574C19.3996 8.88131 19.0816 8.74961 18.7501 8.74961Z" fill="#AFC0D5"/>
    </g>
    <defs>
        <clipPath id="clip0">
            <rect width="20" height="20" fill="white"/>
        </clipPath>
    </defs>
</svg>