<svg width="64" height="64" viewBox="0 0 64 64" fill="none" xmlns="http://www.w3.org/2000/svg">
<path fill-rule="evenodd" clip-rule="evenodd" d="M43.308 5.33325H20.692C18.5454 5.33325 16.772 5.33325 15.332 5.45059C13.8307 5.57325 12.452 5.83725 11.1587 6.49592C9.15172 7.51855 7.52 9.15028 6.49736 11.1573C5.8387 12.4506 5.5747 13.8293 5.45203 15.3279C5.33203 16.7733 5.33203 18.5439 5.33203 20.6879V37.7013C5.33203 39.8213 5.33203 41.3973 5.6947 42.7599C6.17921 44.569 7.13148 46.2186 8.45576 47.5429C9.78004 48.8671 11.4296 49.8194 13.2387 50.3039C14.0574 50.5226 14.9534 50.6106 15.9987 50.6453V54.3226C15.9987 54.9493 15.9987 55.5893 16.0467 56.1146C16.092 56.6159 16.212 57.5599 16.8734 58.3866C17.2483 58.857 17.7245 59.2367 18.2666 59.4976C18.8086 59.7584 19.4025 59.8937 20.004 59.8932C21.0627 59.8932 21.876 59.3946 22.2974 59.1173C22.7347 58.8266 23.2334 58.4266 23.724 58.0346L30.1587 52.8879C31.5427 51.7813 31.9534 51.4693 32.3774 51.2506C32.8067 51.0319 33.2627 50.8719 33.732 50.7759C34.2014 50.6799 34.7187 50.6666 36.4894 50.6666H43.308C45.4547 50.6666 47.228 50.6666 48.668 50.5493C50.1694 50.4266 51.548 50.1626 52.8414 49.5039C54.8483 48.4813 56.4801 46.8496 57.5027 44.8426C58.1614 43.5493 58.4254 42.1706 58.548 40.6719C58.6654 39.2293 58.6654 37.4559 58.6654 35.3119V20.6879C58.6654 18.5413 58.6654 16.7679 58.548 15.3279C58.4254 13.8266 58.1614 12.4479 57.5027 11.1546C56.4801 9.14761 54.8483 7.51589 52.8414 6.49325C51.548 5.83459 50.1694 5.57059 48.6707 5.44792C47.2254 5.33325 45.4547 5.33325 43.3107 5.33325H43.308ZM35.98 19.9999C35.98 18.9391 36.4015 17.9216 37.1516 17.1715C37.9017 16.4213 38.9192 15.9999 39.98 15.9999C41.0409 15.9999 42.0583 16.4213 42.8085 17.1715C43.5586 17.9216 43.98 18.9391 43.98 19.9999C43.98 21.0608 43.5586 22.0782 42.8085 22.8283C42.0583 23.5785 41.0409 23.9999 39.98 23.9999C38.9192 23.9999 37.9017 23.5785 37.1516 22.8283C36.4015 22.0782 35.98 21.0608 35.98 19.9999ZM19.7134 31.1999C20.2773 30.7769 20.9858 30.5945 21.6839 30.6924C22.382 30.7904 23.0129 31.1608 23.4387 31.7226C23.6014 31.9333 23.7827 32.1306 23.9667 32.3226C24.3587 32.7306 24.9507 33.2879 25.7134 33.8426C27.252 34.9626 29.38 36.0026 31.98 36.0026C34.5774 36.0026 36.7054 34.9626 38.244 33.8426C39.0094 33.2879 39.5987 32.7306 39.9907 32.3226C40.1774 32.1306 40.356 31.9333 40.5214 31.7226C40.9471 31.1579 41.5798 30.7854 42.2802 30.6871C42.9806 30.5888 43.6913 30.7728 44.256 31.1986C44.8208 31.6243 45.1932 32.257 45.2915 32.9574C45.3898 33.6578 45.2058 34.3685 44.78 34.9333L44.7427 34.9786C44.458 35.3361 44.1573 35.6804 43.8414 36.0106C43.0858 36.7972 42.2621 37.5156 41.38 38.1573C39.252 39.7039 36.0467 41.3333 31.98 41.3333C27.9107 41.3333 24.7054 39.7066 22.5774 38.1573C21.4295 37.3201 20.3818 36.3538 19.4547 35.2773C19.3914 35.2017 19.3292 35.1253 19.268 35.0479C18.348 33.8586 18.4707 32.1306 19.7134 31.1999ZM23.98 15.9999C23.4547 15.9999 22.9346 16.1034 22.4493 16.3044C21.964 16.5054 21.523 16.8001 21.1516 17.1715C20.7802 17.5429 20.4855 17.9839 20.2845 18.4692C20.0835 18.9545 19.98 19.4746 19.98 19.9999C19.98 20.5252 20.0835 21.0454 20.2845 21.5307C20.4855 22.016 20.7802 22.4569 21.1516 22.8283C21.523 23.1998 21.964 23.4944 22.4493 23.6954C22.9346 23.8965 23.4547 23.9999 23.98 23.9999C25.0409 23.9999 26.0583 23.5785 26.8085 22.8283C27.5586 22.0782 27.98 21.0608 27.98 19.9999C27.98 18.9391 27.5586 17.9216 26.8085 17.1715C26.0583 16.4213 25.0409 15.9999 23.98 15.9999Z" fill="url(#paint0_linear_1366_25072)"/>
<defs>
<linearGradient id="paint0_linear_1366_25072" x1="31.9987" y1="5.33325" x2="31.9987" y2="59.8932" gradientUnits="userSpaceOnUse">
<stop stop-color="#66C7AB"/>
<stop offset="1" stop-color="#119869"/>
</linearGradient>
</defs>
</svg>